<svg xmlns="http://www.w3.org/2000/svg" xmlns:xlink="http://www.w3.org/1999/xlink" xmlns:sketch="http://www.bohemiancoding.com/sketch/ns" width="60px" height="62px" viewBox="0 0 60 62" version="1.1"><title>Slice 1</title><description>Created with Sketch (http://www.bohemiancoding.com/sketch)</description><defs/><g id="Page-1" stroke="none" stroke-width="1" fill="none" fill-rule="evenodd" sketch:type="MSPage"><g id="gc-shield" sketch:type="MSLayerGroup"><g id="Arms" transform="translate(11.308901, 6.211488)" sketch:type="MSShapeGroup"><g id="Precious_Miter"><g id="Cap" transform="translate(8.010471, 0.000000)" stroke="#005CB9"><path d="M10.6963351 0 C9.32984293 0.3 5.8 2.4 4.1 4.4 C0.0314136126 9.2 0 11.3 0 11.3 C0.0314136126 11.3 1.9 12.9 2.2 13.7 C2.2460733 13.7 1.9 14.1 2.2 14.4 C2.45026178 14.6 2.7 14.4 2.7 14.4 C2.71727749 14.4 4.2 13.3 7.1 13 C9.84816754 12.6 10.7 12.6 10.7 12.6 C10.6963351 12.6 11.5 12.6 14.3 13 C17.1989529 13.3 18.9 14.4 18.9 14.4 C18.9424084 14.4 19.4 14.6 19.6 14.4 C19.9005236 14.1 19.6 13.7 19.6 13.7 C19.9947644 12.9 21.8 11.3 21.8 11.3 C21.8167539 11.3 21.7 9 17.3 4.1 C15.486911 2.2 12 0.3 10.7 0 L10.6963351 0 Z" id="Cap_Background" stroke-width="1.3475" fill="#3E8EDE"/><g id="Center_Accents" stroke-width="0.75" fill="#FFFFFF"><path d="M2.2 13.7 C2.2 13.7 4.1 12.7 4.9 12.5 C6.8 12 8.8 11.9 8.8 11.9 L8.8 0.9 L9.3 0.9 L9.4 12.6 L2.7 14.3 C2.7 14.3 2.2 14.5 2 14.1 C1.9 13.8 2.2 13.7 2.2 13.7 L2.2 13.7 Z" id="Left_Cap_Accent"/><path d="M19.6 13.7 C19.6 13.7 17.5 12.9 16 12.4 C14.6 12 12.7 11.9 12.7 11.9 L12.7 0.8 L12.2 0.7 L11.9 12.6 L19.1 14.5 C19.1 14.5 19.5 14.6 19.6 14.2 C19.8 13.8 19.6 13.7 19.6 13.7 L19.6 13.7 Z" id="Right_Cap_Accent"/></g><path d="M12.2513089 12.7 L12.2513089 1.3 C12.2513089 0.9 12.7 0.9 12.7 0.9 L10.6963351 0 L8.84293194 0.9 C8.84293194 0.9 9.3 0.9 9.3 1.3 L9.26701571 12.6 C4.93193717 12.9 2.5 14.4 2.5 14.4 C2.46596859 14.4 2.7 14.7 2.9 15.4 C3.03141361 16.1 3 16.5 3 16.5 C2.96858639 16.5 4.6 15 10.7 15 C17.2774869 15 18.5 16.7 18.5 16.7 C18.4554974 16.7 18.5 16.3 18.8 15.5 C19.0837696 14.7 19.3 14.5 19.3 14.5 C19.2565445 14.5 16.6 13 12.3 12.7 L12.2513089 12.7 Z" id="Center_Cap_Dark" fill="#005CB9"/><g id="Left_Gem"><path d="M4.3 7 L6.6 9 L5.4 11.7 L3.1 10 L4.3 7 Z" id="Shape" stroke-width="0.6737" fill="#FFFFFF"/><path d="M4.4 7.7 L6.1 9.1 L5.2 11 L3.6 9.8 L4.4 7.7 Z" id="Shape" stroke-width="0.9432"/><path d="M4.4 8 L3.8 9.7 L4.7 9.4 L4.4 8 Z" id="Shape" stroke-width="1.3475" fill="#005CB9"/><path d="M5 9.5 L5.2 10.8 L5.9 9.2 L5 9.5 Z" id="Shape" stroke-width="1.3475" fill="#005CB9"/></g><g id="Right_Gem"><path d="M17.4 7.2 L15.1 9.2 L16.3 11.9 L18.6 10.1 L17.4 7.2 Z" id="Shape" stroke-width="0.6737" fill="#FFFFFF"/><path d="M17.2 7.9 L15.6 9.3 L16.5 11.2 L18.1 10 L17.2 7.9 Z" id="Shape" stroke-width="0.9432"/><path d="M17.1 8.2 L15.8 9.2 L16.9 9.5 L17.1 8.2 Z" id="Shape" stroke-width="1.3475" fill="#005CB9"/><path d="M16.6 11 L16.9 9.7 L17.9 10 L16.6 11 Z" id="Shape" stroke-width="1.3475" fill="#005CB9"/></g><ellipse id="Cap_Exterior_Shadow" fill="#FFFFFF" cx="10.7" cy="16.9" rx="7.9" ry="2"/><path d="M10.6335079 18.4 C14.4816754 18.4 17.6 17.8 17.6 17.1 C17.6073298 16.4 14.5 15.6 10.6 15.6 C6.78534031 15.6 3.7 16.3 3.7 17.1 C3.64397906 17.8 6.8 18.4 10.6 18.4 L10.6335079 18.4 Z" id="Cap_Interior_Shadow" fill="#005CB9"/></g><g id="Precious_Stones" transform="translate(11.465969, 0.796345)"><g id="Left_Stones" transform="translate(0.000000, 12.263708)"><g id="Left_Stone_Right" transform="translate(4.240838, 0.000000)"><ellipse id="Oval" stroke="#005CB9" stroke-width="1.3475" fill="#FFFFFF" cx="0.8" cy="0.8" rx="0.8" ry="0.8"/><path d="M0.314136126 1.1 C0.408376963 1.2 0.5 1.2 0.7 1.2 C0.989528796 1.2 1.2 1 1.2 0.7 C1.22513089 0.4 1 0.8 0.8 0.9 C0.486910995 1 0.2 1 0.3 1.1 L0.314136126 1.1 Z" id="Shape" fill="#005CB9"/></g><g id="Left_Stone_Middle" transform="translate(2.041885, 0.318538)"><ellipse id="Oval" stroke="#005CB9" stroke-width="1.3475" fill="#FFFFFF" cx="0.7" cy="0.7" rx="0.7" ry="0.7"/><path d="M0.376963351 1.1 C0.471204188 1.2 0.6 1.3 0.7 1.3 C1.02094241 1.3 1.3 1 1.3 0.7 C1.2565445 0.4 1.1 0.8 0.8 0.9 C0.54973822 1 0.3 1 0.4 1.1 L0.376963351 1.1 Z" id="Shape" fill="#005CB9"/></g><g id="Left_Stone_Left" transform="translate(0.000000, 0.955614)"><ellipse id="Oval" stroke="#005CB9" stroke-width="1.3475" fill="#FFFFFF" cx="0.7" cy="0.7" rx="0.7" ry="0.7"/><path d="M0.267015707 1 C0.361256545 1.1 0.5 1.2 0.6 1.2 C0.879581152 1.2 1.1 1 1.1 0.7 C1.11518325 0.4 0.9 0.7 0.7 0.8 C0.42408377 1 0.2 0.9 0.3 1 L0.267015707 1 Z" id="Shape" fill="#005CB9"/></g></g><g id="Right_Stones" transform="translate(8.952880, 12.263708)"><g id="Right_Stone_Right" transform="translate(4.712042, 1.114883)"><ellipse id="Oval" stroke="#005CB9" stroke-width="1.3475" fill="#FFFFFF" cx="0.7" cy="0.7" rx="0.7" ry="0.7"/><path d="M0.267015707 1 C0.361256545 1.1 0.5 1.2 0.6 1.2 C0.879581152 1.2 1.1 1 1.1 0.7 C1.11518325 0.4 0.9 0.7 0.7 0.8 C0.42408377 1 0.2 0.9 0.3 1 L0.267015707 1 Z" id="Shape" fill="#005CB9"/></g><g id="Right_Stone_Middle" transform="translate(2.356021, 0.477807)"><ellipse id="Oval" stroke="#005CB9" stroke-width="1.3475" fill="#FFFFFF" cx="0.7" cy="0.7" rx="0.7" ry="0.7"/><path d="M0.314136126 1.1 C0.408376963 1.2 0.5 1.2 0.7 1.2 C0.958115183 1.2 1.2 1 1.2 0.7 C1.19371728 0.4 1 0.8 0.8 0.9 C0.502617801 1 0.2 1 0.3 1.1 L0.314136126 1.1 Z" id="Shape" fill="#005CB9"/></g><g id="Right_Stone_Left"><ellipse id="Oval" stroke="#005CB9" stroke-width="1.3475" fill="#FFFFFF" cx="0.8" cy="0.8" rx="0.8" ry="0.8"/><path d="M0.314136126 1.1 C0.408376963 1.2 0.5 1.3 0.7 1.3 C0.989528796 1.3 1.2 1 1.2 0.7 C1.22513089 0.4 1 0.8 0.8 0.9 C0.502617801 1 0.2 1 0.3 1.1 L0.314136126 1.1 Z" id="Shape" fill="#005CB9"/></g></g><g id="Center_Stones" transform="translate(6.282723, 0.000000)"><g id="Center_Stone_Bottom" transform="translate(0.000000, 11.626632)"><ellipse id="Oval" stroke="#005CB9" stroke-width="1.3475" fill="#FFFFFF" cx="0.9" cy="0.9" rx="0.9" ry="0.9"/><path d="M0.439790576 1.3 C0.54973822 1.4 0.7 1.5 0.9 1.5 C1.2565445 1.5 1.5 1.2 1.5 0.8 C1.53926702 0.5 1.3 0.9 1 1.1 C0.659685864 1.2 0.3 1.2 0.4 1.3 L0.439790576 1.3 Z" id="Shape" fill="#005CB9"/></g><g id="Center_Stone_Middle_Bottom" transform="translate(0.000000, 8.919060)"><ellipse id="Oval" stroke="#005CB9" stroke-width="1.3475" fill="#FFFFFF" cx="0.9" cy="0.9" rx="0.9" ry="0.9"/><path d="M0.455497382 1.3 C0.565445026 1.4 0.7 1.5 0.9 1.5 C1.27225131 1.5 1.6 1.2 1.6 0.9 C1.55497382 0.5 1.3 1 1 1.1 C0.67539267 1.2 0.3 1.2 0.5 1.3 L0.455497382 1.3 Z" id="Shape" fill="#005CB9"/></g><g id="Center_Stone_Middle" transform="translate(0.000000, 5.892950)"><ellipse id="Oval" stroke="#005CB9" stroke-width="1.3475" fill="#FFFFFF" cx="0.9" cy="0.9" rx="0.9" ry="0.9"/><path d="M0.455497382 1.3 C0.565445026 1.4 0.7 1.4 0.9 1.4 C1.27225131 1.4 1.6 1.2 1.6 0.8 C1.55497382 0.4 1.3 0.9 1 1 C0.67539267 1.2 0.3 1.1 0.5 1.3 L0.455497382 1.3 Z" id="Shape" fill="#005CB9"/></g><g id="Center_Stone_Middle_Top" transform="translate(0.000000, 2.866841)"><ellipse id="Oval" stroke="#005CB9" stroke-width="1.3475" fill="#FFFFFF" cx="0.9" cy="0.9" rx="0.9" ry="0.9"/><path d="M0.471204188 1.4 C0.581151832 1.6 0.8 1.6 0.9 1.6 C1.28795812 1.6 1.6 1.4 1.6 1 C1.57068063 0.6 1.4 1.1 1 1.2 C0.691099476 1.4 0.4 1.3 0.5 1.4 L0.471204188 1.4 Z" id="Shape" fill="#005CB9"/></g><g id="Center_Stone_Top"><ellipse id="Oval" stroke="#005CB9" stroke-width="1.3475" fill="#FFFFFF" cx="0.9" cy="0.9" rx="0.9" ry="0.9"/><path d="M0.502617801 1.4 C0.612565445 1.5 0.8 1.5 1 1.5 C1.31937173 1.5 1.6 1.3 1.6 0.9 C1.60209424 0.5 1.4 1 1.1 1.1 C0.722513089 1.3 0.4 1.2 0.5 1.4 L0.502617801 1.4 Z" id="Shape" fill="#005CB9"/></g></g></g><g id="Right_Lappet" transform="translate(21.047120, 12.741514)"><path d="M2.79581152 3.4 C2.79581152 3.4 2.8 4.3 4.2 5.5 C5.79581152 6.2 6.9 5.6 7.1 4.4 C7.16230366 3.6 7.5 2.1 8.4 1.3 C8.85863874 0.8 11.2 -0 11.9 0 C12.8795812 0.2 15 1.3 16.1 4.1 C16.9947644 6.5 15.1 12.6 15.1 12.6 C15.078534 12.6 11.5 12.2 11.2 11.4 C10.7748691 10.6 11.8 9.8 12.4 7.6 C12.973822 5.5 12.8 4.3 12.4 3.6 C11.4659686 2.1 11 2.1 10.9 2.1 C10.1308901 2.3 10.1 4.1 9.9 4.8 C9.43979058 6.2 8.8 6.5 8.1 6.6 C6.67539267 6.8 4 6.9 2.7 6.6 C2.02617801 6.5 1.5 6.1 0.7 5 C-0.12565445 3.8 -0 3 -0 3 C-0.0471204188 3 1 3.1 1.4 3.2 C1.68062827 3.2 2.8 3.4 2.8 3.4 L2.79581152 3.4 Z" id="Right_Lappet_Outline" stroke="#005CB9" fill="#FFFFFF"/><g id="Right_Lappet_Shadow"><path d="M9.8 1.2 C9 1.1 8.4 1.2 8.2 1.4 C7.1 2.4 7.3 5.1 6.3 5.6 C5.2 6.2 3.9 5.1 3.9 5.1 C3.8 5.1 5.3 7 7.2 6.7 C10.4 6.6 9.8 3.6 10.7 2.2 C10.9 1.8 11.8 2.8 11.8 2.8 C11.8 2.8 11 1.4 9.8 1.2 L9.8 1.2 Z" id="Shape" fill="#005CB9"/><path d="M9.8 1.2 C9 1.1 8.4 1.2 8.2 1.4 C7.1 2.4 7.3 5.1 6.3 5.6 C5.2 6.2 3.9 5.1 3.9 5.1 C3.8 5.1 5.3 7 7.2 6.7 C10.4 6.6 9.8 3.6 10.7 2.2 C10.9 1.8 11.8 2.8 11.8 2.8 C11.8 2.8 11 1.4 9.8 1.2 L9.8 1.2 Z" id="Shape" stroke="#005CB9" stroke-width="0.75"/></g><g id="Right_Lappet_Fringes" transform="translate(10.523560, 10.989556)"><path d="M4.5078534 1.5 C4.5078534 1.5 5.2 2.5 5.1 3.1 C5.04188482 3.7 4.6 4.4 4.6 5 C4.52356021 5.6 5.1 5.6 4.9 5.9 C4.42931937 6.4 4 5.8 4 4.9 C3.97382199 4.6 4.1 4.2 4.2 3.9 C4.2408377 3.6 4.3 2.9 4.3 3.1 C4.20942408 3.3 4.1 3.5 4 4 C3.97382199 4.3 3.8 4.6 3.8 4.9 C3.81675393 5.3 3.9 5.7 4.1 5.9 C4.17801047 6.1 3.9 6.1 3.7 6 C3.51832461 5.8 3.3 5.5 3.3 5.5 C3.34554974 5.5 3.3 5.8 3.1 5.8 C2.92146597 5.8 2.7 5.4 2.7 5.4 C2.7486911 5.4 2.6 5.6 2.4 5.6 C2.2617801 5.6 2.2 4.4 2.2 4.4 C2.16753927 4.3 2.2 5.5 2.1 5.5 C1.77486911 5.6 1.7 5.1 1.7 5.1 C1.69633508 5.1 1.6 5.4 1.3 5.3 C1.03664921 5.3 1 4.8 1 4.8 C1.02094241 4.8 0.9 5.1 0.6 5.1 C0.12565445 5.1 0 4.7 0 4.7 C0.0628272251 4.7 0.7 4.7 0.5 3.9 C0.251308901 2.8 -0 2.9 0 1.4 C0.0785340314 -0 0.5 -0 0.5 -0 C0.534031414 0.1 0.5 0.6 1.1 0.8 C1.91623037 1.1 4.5 1.5 4.5 1.5 L4.5078534 1.5 Z" id="Right_Lappet_Fringe_-_Outline" stroke="#005CB9" fill="#FFFFFF"/><g id="Right_Lappet_Fringe_-_Solid" fill="#005CB9"><path id="Shape" d="M0.8 1.2 C0.8 1.2 0.5 2 0.5 2.5 C0.6 2.7 0.7 3.1 0.9 3.4 C1.1 3.8 1.1 4.4 1.1 4.4 C1.1 4.4 1 2.4 0.9 2.1 C0.9 1.8 0.7 1.2 0.7 1.2 L0.8 1.2 Z"/><path id="Shape" d="M1.3 1.5 C1.3 1.5 1.7 2.3 1.7 2.9 C1.7 3.4 1.6 4.3 1.6 4.3 C1.6 4.3 1.6 3.3 1.4 2.8 C1.3 2.4 1.3 1.5 1.3 1.5 L1.3 1.5 Z"/><path id="Shape" d="M2.1 1.7 C2.1 1.7 2.3 2.2 2.3 2.6 C2.3 2.9 2.2 3.3 2.2 3.3 C2.2 3.3 2.1 2.6 2.1 2.3 C2.2 2.2 2 1.7 2 1.7 L2.1 1.7 Z"/><path id="Shape" d="M2.8 1.9 C2.8 1.9 3.1 2.5 3.1 2.9 C3.1 3.2 2.9 3.5 2.8 3.9 C2.8 4.3 2.8 4.9 2.8 4.9 C2.8 4.9 2.6 4.3 2.6 3.9 C2.7 3.5 2.9 3.4 2.9 2.9 C2.9 2.3 2.8 1.9 2.8 1.9 L2.8 1.9 Z"/><path id="Shape" d="M3.6 2.6 C3.6 2.6 3.6 3.3 3.6 3.5 C3.6 3.7 3.6 3.7 3.5 4 C3.4 4.3 3.3 5 3.3 5 C3.3 5 3.3 4.2 3.3 4 C3.4 3.8 3.4 3.6 3.5 3.5 C3.5 3.2 3.6 2.6 3.6 2.6 L3.6 2.6 Z"/></g></g></g><g id="Left_Lappet" transform="translate(0.000000, 12.741514)"><g id="Left_Lappet_Outline"><path d="M15.3298429 3.1 C15 3.1 13.6 3.3 13.6 3.3 C13.5863874 3.3 13.5 4.1 12 5.3 C10.460733 6.4 9.4 5.6 9.3 4.4 C9.15706806 3.6 8.8 2.1 8 1.3 C7.46073298 0.7 6.8 0.4 6.4 0.3 C5.30890052 0 5.1 -0 4.4 0 C3.42408377 0.1 1.3 1.3 0.2 4.1 C-0.691099476 6.5 1.2 12.5 1.2 12.5 C1.22513089 12.5 4.8 12.2 5.2 11.4 C5.52879581 10.5 4.5 9.8 3.9 7.6 C3.32984293 5.5 3.5 4.3 3.9 3.6 C4.83769634 2.1 5.3 2.1 5.5 2.1 C6.17277487 2.3 6.3 3.9 6.8 4.7 C7.44502618 6 7.6 6.6 8.1 6.8 C8.93717277 7.1 11.8 7 13 6.8 C13.7905759 6.6 14.7 6.1 15.6 5 C16.4136126 3.8 16.4 3 16.4 3 C16.4293194 3 15.7 3 15.3 3.1 L15.3298429 3.1 Z" id="Shape" fill="#FFFFFF"/><path d="M15.3298429 3.1 C15 3.1 13.6 3.3 13.6 3.3 C13.5863874 3.3 13.5 4.1 12 5.3 C10.460733 6.4 9.4 5.6 9.3 4.4 C9.15706806 3.6 8.8 2.1 8 1.3 C7.46073298 0.7 6.8 0.4 6.4 0.3 C5.30890052 0 5.1 -0 4.4 0 C3.42408377 0.1 1.3 1.3 0.2 4.1 C-0.691099476 6.5 1.2 12.5 1.2 12.5 C1.22513089 12.5 4.8 12.2 5.2 11.4 C5.52879581 10.5 4.5 9.8 3.9 7.6 C3.32984293 5.5 3.5 4.3 3.9 3.6 C4.83769634 2.1 5.3 2.1 5.5 2.1 C6.17277487 2.3 6.3 3.9 6.8 4.7 C7.44502618 6 7.6 6.6 8.1 6.8 C8.93717277 7.1 11.8 7 13 6.8 C13.7905759 6.6 14.7 6.1 15.6 5 C16.4136126 3.8 16.4 3 16.4 3 C16.4293194 3 15.7 3 15.3 3.1 L15.3298429 3.1 Z" id="Shape" stroke="#005CB9"/></g><g id="Left_Lappet_Shadow" transform="translate(3.926702, 1.114883)"><g id="Group" fill="#005CB9"><path id="Shape" d="M8.2617801 4.1 C8.40314136 4 8.5 3.9 8.5 3.9 C8.48167539 3.9 8.4 4 8.3 4.1 L8.2617801 4.1 Z"/><path d="M6.07853403 4.6 C5.10471204 4 5.2 1.4 4.2 0.4 C4.0052356 0.1 3.2 -0.2 2.6 0 C1.94764398 0.3 0.4 1.2 0 2.5 C0.0471204188 2.5 1.1 0.7 1.6 1 C2.68586387 1.6 2.8 5.6 4.9 5.7 C5.98429319 5.9 7.7 4.6 8.3 4.1 C7.85340314 4.4 7 5 6.1 4.6 L6.07853403 4.6 Z" id="Shape"/></g><g id="Group" stroke-width="0.75" stroke="#005CB9"><path id="Shape" d="M8.2617801 4.1 C8.40314136 4 8.5 3.9 8.5 3.9 C8.48167539 3.9 8.4 4 8.3 4.1 L8.2617801 4.1 Z"/><path d="M6.07853403 4.6 C5.10471204 4 5.2 1.4 4.2 0.4 C4.0052356 0.1 3.2 -0.2 2.6 0 C1.94764398 0.3 0.4 1.2 0 2.5 C0.0471204188 2.5 1.1 0.7 1.6 1 C2.68586387 1.6 2.8 5.6 4.9 5.7 C5.98429319 5.9 7.7 4.6 8.3 4.1 C7.85340314 4.4 7 5 6.1 4.6 L6.07853403 4.6 Z" id="Shape"/></g></g><g id="Left_Lappet_Fringes" transform="translate(0.628272, 11.148825)"><path d="M0.628272251 1.4 C0.628272251 1.4 -0 2.2 0 2.8 C0.0942408377 3.4 0.5 4.1 0.5 4.7 C0.612565445 5.3 0 5.3 0.2 5.6 C0.706806283 6.1 1.2 5.5 1.2 4.7 C1.16230366 4.3 1 3.9 1 3.6 C0.895287958 3.3 0.8 2.6 0.9 2.8 C0.910994764 3 1 3.2 1.1 3.7 C1.16230366 4 1.3 4.3 1.3 4.6 C1.31937173 5 1.2 5.4 1.1 5.6 C0.958115183 5.8 1.2 5.8 1.4 5.7 C1.61780105 5.5 1.8 5.2 1.8 5.2 C1.79057592 5.2 1.9 5.5 2 5.5 C2.21465969 5.5 2.4 5.1 2.4 5.1 C2.38743455 5.1 2.5 5.4 2.7 5.4 C2.87434555 5.4 2.9 3.9 3 4.2 C2.96858639 4.4 3 5.2 3.1 5.2 C3.36125654 5.3 3.4 4.8 3.4 4.8 C3.43979058 4.8 3.5 5.1 3.8 5 C4.09947644 5 4.1 4.5 4.1 4.5 C4.11518325 4.5 4.2 4.8 4.6 4.8 C5.0104712 4.8 5.2 4.4 5.2 4.4 C5.10471204 4.4 4.6 3.8 4.6 3.4 C4.69633508 2.9 5.1 2.8 5.2 1.3 C5.19895288 0 4.7 0.1 4.7 0.1 C4.41361257 0.4 4.5 0.7 3.5 0.9 C2.81151832 1 0.6 1.4 0.6 1.4 L0.628272251 1.4 Z" id="Left_Lappet_Fringe_-_Outline" stroke="#005CB9" fill="#FFFFFF"/><g id="Left_Lappet_Fringe_-_Solid" fill="#005CB9"><path d="M4.5 0.8 C4.5 0.8 4.7 1.6 4.7 2.2 C4.7 2.4 4.5 2.7 4.4 3 C4.2 3.4 4.1 3.9 4.1 3.9 C4.1 3.9 4.2 2.1 4.3 1.7 C4.3 1.4 4.5 0.8 4.5 0.8 L4.5 0.8 Z" id="Shape"/><path id="Shape" d="M3.8 1.2 C3.8 1.2 3.4 2 3.4 2.6 C3.4 3.1 3.5 4 3.5 4 C3.5 4 3.5 3 3.7 2.5 C3.9 2 3.8 1.2 3.8 1.2 L3.8 1.2 Z"/><path id="Shape" d="M3.1 1.4 C3.1 1.4 2.8 1.9 2.8 2.2 C2.8 2.6 2.9 2.9 2.9 2.9 C3 2.9 3 2.2 3 2 C3 1.9 3 1.4 3 1.4 L3.1 1.4 Z"/><path id="Shape" d="M2.3 1.6 C2.3 1.6 2 2.2 2 2.6 C2.1 2.9 2.2 3.2 2.3 3.6 C2.4 4 2.3 4.6 2.3 4.6 C2.4 4.6 2.5 4 2.5 3.6 C2.5 3.2 2.2 3.1 2.2 2.6 C2.2 2 2.3 1.6 2.3 1.6 L2.3 1.6 Z"/><path id="Shape" d="M1.5 2.3 C1.5 2.3 1.4 3 1.5 3.1 C1.5 3.3 1.5 3.4 1.6 3.7 C1.7 4 1.8 4.6 1.8 4.6 C1.8 4.6 1.8 3.9 1.7 3.7 C1.7 3.5 1.6 3.3 1.6 3.1 C1.6 2.9 1.5 2.3 1.5 2.3 L1.5 2.3 Z"/></g></g></g></g><g id="Shield" transform="translate(5.811518, 19.590078)"><path d="M12.895288 -0.1 L0.0157068063 -0.1 L0.0157068063 14.5 C0.0157068063 14.5 0.4 20.1 3.7 24 C7.66492147 28.8 12.9 29.1 12.9 29.1 C12.895288 29.1 18.1 28.8 22.1 24 C25.4450262 20.1 25.8 14.5 25.8 14.5 L25.7748691 -0.1 L12.895288 -0.1 L12.895288 -0.1 Z" id="Shield_Background" fill="#FFFFFF"/><g id="Saltire"><rect id="Azure" fill="#005CB9" x="0" y="0" width="10.6" height="10.8"/><g id="Cross_Crosslets" fill="#FFFFFF"><path d="M3 8.7 L3 8.6 L2.8 8.6 L2.8 8.7 L2 8.7 L2 7.9 L2.1 7.9 L2.1 7.7 L2 7.7 L2 7.4 L1.7 7.4 L1.7 7.7 L1.6 7.7 L1.6 7.9 L1.7 7.9 L1.7 8.7 L1 8.7 L1 8.6 L0.7 8.6 L0.7 8.7 L0.5 8.7 L0.5 9 L0.7 9 L0.7 9.1 L1 9.1 L1 9 L1.7 9 L1.7 9.8 L1.6 9.8 L1.6 10 L1.7 10 L1.7 10.3 L2 10.3 L2 10 L2.1 10 L2.1 9.8 L2 9.8 L2 9 L2.8 9 L2.8 9.1 L3 9.1 L3 9 L3.3 9 L3.3 8.7 L3 8.7 Z" id="Shape"/><path d="M4.7 6.9 L4.7 6.8 L4.5 6.8 L4.5 6.9 L3.7 6.9 L3.7 6.1 L3.8 6.1 L3.8 5.9 L3.7 5.9 L3.7 5.6 L3.4 5.6 L3.4 5.9 L3.3 5.9 L3.3 6.1 L3.4 6.1 L3.4 6.9 L2.7 6.9 L2.7 6.8 L2.4 6.8 L2.4 6.9 L2.2 6.9 L2.2 7.2 L2.4 7.2 L2.4 7.3 L2.7 7.3 L2.7 7.2 L3.4 7.2 L3.4 8 L3.3 8 L3.3 8.2 L3.4 8.2 L3.4 8.5 L3.7 8.5 L3.7 8.2 L3.8 8.2 L3.8 8 L3.7 8 L3.7 7.2 L4.5 7.2 L4.5 7.3 L4.7 7.3 L4.7 7.2 L5 7.2 L5 6.9 L4.7 6.9 Z" id="Shape"/><path d="M6.3 5.1 L6.3 5 L6.1 5 L6.1 5.1 L5.3 5.1 L5.3 4.3 L5.5 4.3 L5.5 4.1 L5.3 4.1 L5.3 3.8 L5.1 3.8 L5.1 4.1 L4.9 4.1 L4.9 4.3 L5.1 4.3 L5.1 5.1 L4.3 5.1 L4.3 5 L4.1 5 L4.1 5.1 L3.8 5.1 L3.8 5.4 L4.1 5.4 L4.1 5.5 L4.3 5.5 L4.3 5.4 L5.1 5.4 L5.1 6.2 L4.9 6.2 L4.9 6.4 L5.1 6.4 L5.1 6.6 L5.3 6.6 L5.3 6.4 L5.5 6.4 L5.5 6.2 L5.3 6.2 L5.3 5.4 L6.1 5.4 L6.1 5.5 L6.3 5.5 L6.3 5.4 L6.6 5.4 L6.6 5.1 L6.3 5.1 Z" id="Shape"/><path d="M4.7 3.4 L4.7 3.3 L4.4 3.3 L4.4 3.4 L3.7 3.4 L3.7 2.6 L3.8 2.6 L3.8 2.4 L3.7 2.4 L3.7 2.1 L3.4 2.1 L3.4 2.4 L3.3 2.4 L3.3 2.6 L3.4 2.6 L3.4 3.4 L2.7 3.4 L2.7 3.3 L2.4 3.3 L2.4 3.4 L2.2 3.4 L2.2 3.7 L2.4 3.7 L2.4 3.8 L2.7 3.8 L2.7 3.7 L3.4 3.7 L3.4 4.4 L3.3 4.4 L3.3 4.7 L3.4 4.7 L3.4 4.9 L3.7 4.9 L3.7 4.7 L3.8 4.7 L3.8 4.4 L3.7 4.4 L3.7 3.7 L4.4 3.7 L4.4 3.8 L4.7 3.8 L4.7 3.7 L4.9 3.7 L4.9 3.4 L4.7 3.4 Z" id="Shape"/><path d="M3 1.7 L3 1.6 L2.8 1.6 L2.8 1.7 L2 1.7 L2 0.9 L2.2 0.9 L2.2 0.7 L2 0.7 L2 0.4 L1.7 0.4 L1.7 0.7 L1.6 0.7 L1.6 0.9 L1.7 0.9 L1.7 1.7 L1 1.7 L1 1.6 L0.7 1.6 L0.7 1.7 L0.5 1.7 L0.5 2 L0.7 2 L0.7 2.1 L1 2.1 L1 2 L1.7 2 L1.7 2.7 L1.6 2.7 L1.6 3 L1.7 3 L1.7 3.3 L2 3.3 L2 3 L2.1 3 L2.1 2.7 L2 2.7 L2 2 L2.8 2 L2.8 2.1 L3 2.1 L3 2 L3.3 2 L3.3 1.7 L3 1.7 Z" id="Shape"/><path d="M8.1 3.4 L8.1 3.3 L7.9 3.3 L7.9 3.4 L7.1 3.4 L7.1 2.6 L7.3 2.6 L7.3 2.4 L7.1 2.4 L7.1 2.1 L6.9 2.1 L6.9 2.4 L6.7 2.4 L6.7 2.6 L6.9 2.6 L6.9 3.4 L6.1 3.4 L6.1 3.3 L5.8 3.3 L5.8 3.4 L5.6 3.4 L5.6 3.7 L5.8 3.7 L5.8 3.8 L6.1 3.8 L6.1 3.7 L6.9 3.7 L6.9 4.5 L6.7 4.5 L6.7 4.7 L6.9 4.7 L6.9 5 L7.1 5 L7.1 4.7 L7.2 4.7 L7.2 4.5 L7.1 4.5 L7.1 3.7 L7.9 3.7 L7.9 3.8 L8.1 3.8 L8.1 3.7 L8.4 3.7 L8.4 3.4 L8.1 3.4 Z" id="Shape"/><path d="M9.9 1.7 L9.9 1.6 L9.6 1.6 L9.6 1.7 L8.9 1.7 L8.9 0.9 L9 0.9 L9 0.7 L8.9 0.7 L8.9 0.4 L8.6 0.4 L8.6 0.7 L8.5 0.7 L8.5 0.9 L8.6 0.9 L8.6 1.7 L7.9 1.7 L7.9 1.6 L7.6 1.6 L7.6 1.7 L7.4 1.7 L7.4 2 L7.6 2 L7.6 2.1 L7.9 2.1 L7.9 2 L8.6 2 L8.6 2.8 L8.5 2.8 L8.5 3 L8.6 3 L8.6 3.3 L8.9 3.3 L8.9 3 L9 3 L9 2.8 L8.9 2.8 L8.9 2 L9.6 2 L9.6 2.2 L9.9 2.2 L9.9 2 L10.1 2 L10.1 1.7 L9.9 1.7 Z" id="Shape"/><path d="M8.1 7 L8.1 6.8 L7.8 6.8 L7.8 7 L7.1 7 L7.1 6.2 L7.2 6.2 L7.2 5.9 L7.1 5.9 L7.1 5.7 L6.8 5.7 L6.8 5.9 L6.7 5.9 L6.7 6.2 L6.8 6.2 L6.8 7 L6 7 L6 6.8 L5.8 6.8 L5.8 7 L5.5 7 L5.5 7.2 L5.8 7.2 L5.8 7.4 L6 7.4 L6 7.2 L6.8 7.2 L6.8 8 L6.6 8 L6.6 8.3 L6.8 8.3 L6.8 8.5 L7.1 8.5 L7.1 8.3 L7.2 8.3 L7.2 8 L7.1 8 L7.1 7.2 L7.8 7.2 L7.8 7.4 L8.1 7.4 L8.1 7.2 L8.3 7.2 L8.3 7 L8.1 7 Z" id="Shape"/><path d="M9.9 8.6 L9.9 8.5 L9.7 8.5 L9.7 8.6 L8.9 8.6 L8.9 7.8 L9.1 7.8 L9.1 7.5 L8.9 7.5 L8.9 7.3 L8.7 7.3 L8.7 7.5 L8.5 7.5 L8.5 7.8 L8.7 7.8 L8.7 8.6 L7.9 8.6 L7.9 8.4 L7.6 8.4 L7.6 8.6 L7.4 8.6 L7.4 8.8 L7.6 8.8 L7.6 9 L7.9 9 L7.9 8.8 L8.7 8.8 L8.7 9.6 L8.5 9.6 L8.5 9.9 L8.7 9.9 L8.7 10.1 L8.9 10.1 L8.9 9.9 L9 9.9 L9 9.6 L8.9 9.6 L8.9 8.8 L9.7 8.8 L9.7 9 L9.9 9 L9.9 8.8 L10.2 8.8 L10.2 8.6 L9.9 8.6 Z" id="Shape"/></g></g><path d="M25.7905759 15.3 L15.1727749 15.3 L15.1727749 28.7 L12.895288 29.1 L10.617801 28.7 L10.617801 15.3 L0 15.3 L0 10.7 L10.617801 10.7 L10.617801 -0.1 L15.1727749 -0.1 L15.1727749 10.7 L25.7905759 10.7 L25.7905759 15.3 L25.7905759 15.3 Z" id="St._George_x27_s_Cross" fill="#C6093B"/><path d="M12.895288 -0.1 L0.0157068063 -0.1 L0.0157068063 14.5 C0.0157068063 14.5 0.4 20.1 3.7 24 C7.66492147 28.8 12.9 29.1 12.9 29.1 C12.895288 29.1 18.1 28.8 22.1 24 C25.4450262 20.1 25.8 14.5 25.8 14.5 L25.7748691 -0.1 L12.895288 -0.1 L12.895288 -0.1 Z" id="Shield_Border_2_" stroke="#111820"/></g></g><g id="Legend_-_Editable" sketch:type="MSShapeGroup"><g id="Text_2_"><g id="Group"><path d="M33 4.3 C47.4 6 57.6 19.1 56 33.6 C54.3 48.1 41.3 58.5 27 56.8 C12.6 55.1 2.4 42 4.1 27.5 C5.8 12.9 18.8 2.6 33.1 4.3 L33 4.3 Z" id="Shape"/><path d="M9.8 51.8 L10.6 52.6 L10.4 52.9 L8.5 51 L8.7 50.7 L9.5 51.5 L11.6 49.3 L11.9 49.6 L9.8 51.8 L9.8 51.8 Z" id="Shape" fill="#005CB9"/><path d="M8 50.5 L7.7 50.1 L8.9 49.2 L7.7 47.8 L6.6 48.7 L6.3 48.4 L9 46.2 L9.2 46.6 L8 47.6 L9.2 49 L10.4 48 L10.6 48.3 L8 50.5 L8 50.5 Z" id="Shape" fill="#005CB9"/><path d="M5.7 47.5 L4.5 45.5 L4.8 45.3 L5.8 46.9 L6.7 46.3 L5.7 44.8 L6.1 44.6 L7 46.1 L8 45.5 L7 43.9 L7.3 43.7 L8.5 45.7 L5.7 47.5 L5.7 47.5 Z" id="Shape" fill="#005CB9"/><path d="M5.1 40 C5.6 40.1 5.9 40.4 6 40.8 C6.4 41.7 5.9 42.6 5.1 42.9 C4.2 43.3 3.2 43.2 2.8 42.2 C2.5 41.5 2.6 40.8 3.3 40.4 L3.4 40.8 C3 41.1 3 41.5 3.1 42 C3.4 42.8 4.2 42.8 4.9 42.5 C5.5 42.2 6 41.6 5.7 40.9 C5.4 40.2 4.8 40.1 4.3 40.3 L4.6 41.3 L4.3 41.5 L3.7 40.1 L5.4 39.4 L5.5 39.7 L5.1 40 L5.1 40 Z" id="Shape" fill="#005CB9"/><path d="M2 39.8 L1.3 37.6 L1.7 37.4 L2.2 39.3 L3.2 39 L2.7 37.3 L3.1 37.2 L3.6 38.9 L4.7 38.5 L4.2 36.7 L4.6 36.6 L5.2 38.9 L2 39.8 L2 39.8 Z" id="Shape" fill="#005CB9"/><path d="M1.1 36.7 L1.1 36.2 L3.5 34 L3.5 34 L0.8 34.4 L0.7 34 L4 33.5 L4.1 34 L1.7 36.1 L1.7 36.2 L4.4 35.7 L4.5 36.1 L1.1 36.7 L1.1 36.7 Z" id="Shape" fill="#005CB9"/><path d="M0.6 33 L0.5 30.6 L0.9 30.6 L1 32.5 L2 32.5 L2 30.7 L2.3 30.7 L2.4 32.4 L3.6 32.4 L3.5 30.5 L3.9 30.5 L4 32.8 L0.6 33 L0.6 33 Z" id="Shape" fill="#005CB9"/><path d="M0.5 29.8 L0.6 28.2 C0.7 27.5 1.1 27.2 1.6 27.2 C2 27.2 2.3 27.4 2.4 27.8 L2.4 27.8 C2.5 27.4 2.8 27.4 3.2 27.4 C3.5 27.4 3.9 27.4 4.1 27.2 L4.1 27.8 C3.9 27.9 3.6 27.8 3.2 27.8 C2.9 27.9 2.6 27.9 2.6 28.3 L2.5 29.4 L3.9 29.5 L3.9 30 L0.5 29.8 L0.5 29.8 ZM2.2 28.5 C2.2 28 2.1 27.7 1.6 27.6 C1.3 27.6 1.1 27.8 1 28.2 L0.9 29.3 L2.1 29.4 L2.2 28.5 L2.2 28.5 Z" id="Shape" fill="#005CB9"/><path d="M1 25.3 L1.1 24.8 L4.6 24.1 L4.6 24.6 L3.5 24.8 L3.2 26.2 L4.1 26.8 L4.1 27.2 L1 25.3 L1 25.3 ZM2.9 26 L3.1 24.9 L1.4 25.1 L1.4 25.1 L2.9 26 L2.9 26 Z" id="Shape" fill="#005CB9"/><path d="M1.5 22.9 L1.6 22.5 L4.5 23.3 L5 21.6 L5.4 21.7 L4.7 23.9 L1.5 22.9 L1.5 22.9 Z" id="Shape" fill="#005CB9"/><path d="M4.9 17 C4.4 16.9 4 17.1 3.8 17.5 C3.5 18.3 3.9 18.9 4.6 19.2 C5.2 19.5 6 19.5 6.3 18.8 C6.5 18.2 6.4 17.7 5.9 17.5 L6 17 C6.8 17.5 7 18.2 6.6 19 C6.2 19.9 5.3 20 4.4 19.6 C3.5 19.2 3 18.3 3.5 17.4 C3.8 16.7 4.4 16.4 5.1 16.6 L4.9 17 L4.9 17 Z" id="Shape" fill="#005CB9"/><path d="M5.3 14.1 C5.9 13.2 6.9 13.2 7.7 13.7 C8.4 14.2 8.9 15.1 8.3 16 C7.7 17 6.7 16.9 5.9 16.4 C5.1 15.9 4.8 15 5.3 14.1 L5.3 14.1 ZM7.9 15.8 C8.4 15.1 8 14.5 7.5 14.1 C6.9 13.7 6.1 13.6 5.7 14.3 C5.2 15 5.6 15.7 6.2 16 C6.7 16.4 7.5 16.5 8 15.8 L7.9 15.8 Z" id="Shape" fill="#005CB9"/><path d="M6.8 12.1 L7.1 11.7 L10.4 12.1 L8.3 10.3 L8.6 10 L11.1 12.2 L10.8 12.6 L7.6 12.2 L9.7 14 L9.4 14.3 L6.8 12.1 L6.8 12.1 Z" id="Shape" fill="#005CB9"/><path d="M12.5 10.9 L12.2 11.2 L9 9.5 L9.4 9.2 L12.1 10.7 L10.8 7.9 L11.2 7.5 L12.5 10.9 L12.5 10.9 Z" id="Shape" fill="#005CB9"/><path d="M11.7 7.1 L13.5 5.7 L13.7 6 L12.2 7.2 L12.9 8.1 L14.3 7 L14.5 7.3 L13.1 8.4 L13.8 9.3 L15.3 8.2 L15.5 8.5 L13.6 9.9 L11.7 7.1 L11.7 7.1 Z" id="Shape" fill="#005CB9"/><path d="M14.2 5.3 L14.6 5 L17.5 6.6 L17.5 6.6 L16.2 4.2 L16.6 3.9 L18.2 6.9 L17.8 7.1 L14.9 5.6 L14.9 5.6 L16.3 8 L15.9 8.2 L14.2 5.3 L14.2 5.3 Z" id="Shape" fill="#005CB9"/><path d="M18.3 3.5 L17.3 4 L17.2 3.6 L19.6 2.5 L19.8 2.9 L18.7 3.3 L19.9 6.1 L19.5 6.3 L18.3 3.5 L18.3 3.5 Z" id="Shape" fill="#005CB9"/><path d="M20.2 2.4 L20.6 2.2 L21.7 5.4 L21.3 5.6 L20.2 2.4 L20.2 2.4 Z" id="Shape" fill="#005CB9"/><path d="M22.9 1.5 C23.9 1.2 24.7 1.9 24.9 2.8 C25.1 3.7 24.8 4.7 23.8 4.9 C22.7 5.2 22 4.5 21.8 3.6 C21.5 2.7 21.9 1.7 22.9 1.5 L22.9 1.5 ZM23.7 4.6 C24.5 4.4 24.6 3.6 24.5 2.9 C24.3 2.3 23.8 1.7 23 1.8 C22.2 2 22.1 2.8 22.2 3.5 C22.4 4.2 22.9 4.8 23.7 4.6 L23.7 4.6 Z" id="Shape" fill="#005CB9"/><path d="M25.4 1 L25.8 1 L27.9 3.5 L27.9 3.5 L27.6 0.8 L28 0.7 L28.4 4.1 L27.9 4.2 L25.9 1.6 L25.9 1.6 L26.2 4.4 L25.7 4.4 L25.4 1 L25.4 1 Z" id="Shape" fill="#005CB9"/><path d="M31.9 0.6 C33 0.7 33.5 1.6 33.5 2.5 C33.4 3.5 32.8 4.3 31.7 4.2 C30.6 4.1 30.2 3.2 30.2 2.3 C30.3 1.4 30.9 0.6 32 0.6 L31.9 0.6 ZM31.7 3.8 C32.5 3.9 33 3.2 33 2.5 C33 1.8 32.8 1.1 31.9 1 C31.1 1 30.7 1.7 30.7 2.4 C30.6 3 30.9 3.8 31.8 3.8 L31.7 3.8 Z" id="Shape" fill="#005CB9"/><path d="M34.4 1 L36.5 1.4 L36.5 1.8 L34.8 1.4 L34.6 2.5 L36.1 2.8 L36 3.2 L34.5 2.9 L34.2 4.4 L33.8 4.3 L34.4 1 L34.4 1 Z" id="Shape" fill="#005CB9"/><path d="M39.3 2.6 L38.2 2.2 L38.3 1.9 L40.9 2.8 L40.7 3.1 L39.7 2.8 L38.7 5.6 L38.3 5.5 L39.3 2.6 L39.3 2.6 Z" id="Shape" fill="#005CB9"/><path d="M41.5 3 L41.9 3.2 L41.3 4.5 L42.9 5.3 L43.5 4 L43.9 4.2 L42.5 7.2 L42.1 7 L42.7 5.6 L41.1 4.8 L40.5 6.3 L40.1 6.1 L41.5 3 L41.5 3 Z" id="Shape" fill="#005CB9"/><path d="M44.8 4.7 L46.8 5.9 L46.6 6.3 L45 5.2 L44.4 6.2 L45.9 7.1 L45.7 7.4 L44.2 6.5 L43.6 7.5 L45.2 8.5 L45 8.8 L43 7.6 L44.8 4.7 L44.8 4.7 Z" id="Shape" fill="#005CB9"/><path d="M48.6 7.3 L50.3 8.9 L50.1 9.2 L48.7 7.9 L48 8.7 L49.3 9.9 L49 10.2 L47.7 9 L46.9 9.9 L48.4 11.1 L48.1 11.4 L46.4 9.9 L48.6 7.3 L48.6 7.3 Z" id="Shape" fill="#005CB9"/><path d="M50.9 9.5 L51.9 10.6 C52.4 11.1 52.4 11.6 51.9 12 C51.4 12.5 51 12.4 50.5 11.9 L49.8 11.2 L48.8 12.1 L48.5 11.8 L50.9 9.5 L50.9 9.5 ZM50 10.9 L50.6 11.6 C51 12 51.3 12 51.6 11.7 C51.9 11.4 51.9 11.1 51.6 10.7 L51 10.1 L50 10.9 L50 10.9 Z" id="Shape" fill="#005CB9"/><path d="M53.1 12 L53.4 12.3 L50.7 14.4 L50.4 14.1 L53.1 12 L53.1 12 Z" id="Shape" fill="#005CB9"/><path d="M54.2 15.3 C54.6 15 54.6 14.6 54.3 14.2 C54.1 13.9 53.8 13.7 53.4 13.9 C53.1 14.1 53.4 14.6 53.5 15.1 C53.7 15.7 53.9 16.2 53.3 16.6 C52.7 17 52.1 16.6 51.8 16 C51.3 15.4 51.3 14.6 52 14.2 L52.2 14.6 C51.7 14.9 51.8 15.4 52.1 15.8 C52.3 16.2 52.7 16.5 53.1 16.2 C53.4 16 53.2 15.5 53 15 C52.8 14.4 52.6 13.9 53.1 13.5 C53.7 13.2 54.3 13.5 54.6 14 C55 14.6 55 15.2 54.4 15.7 L54.2 15.3 L54.2 15.3 Z" id="Shape" fill="#005CB9"/><path d="M55.9 18.6 C56.3 18.3 56.4 17.8 56.2 17.4 C55.8 16.7 55.1 16.7 54.4 17 C53.7 17.3 53.3 17.9 53.7 18.7 C53.9 19.2 54.5 19.3 55 19.1 L55.2 19.5 C54.4 19.8 53.7 19.6 53.3 18.8 C52.8 17.8 53.3 17 54.2 16.6 C55.1 16.2 56 16.3 56.5 17.2 C56.8 17.9 56.7 18.6 56.1 19 L55.9 18.6 L55.9 18.6 Z" id="Shape" fill="#005CB9"/><path d="M57.9 20.7 C58.3 21.8 57.7 22.6 56.8 22.9 C55.9 23.2 55 22.9 54.6 21.9 C54.3 20.9 54.9 20.1 55.8 19.8 C56.6 19.5 57.6 19.7 58 20.7 L57.9 20.7 ZM54.9 21.8 C55.2 22.6 56 22.7 56.7 22.4 C57.3 22.2 57.9 21.6 57.6 20.9 C57.3 20.1 56.5 20 55.9 20.2 C55.2 20.4 54.7 21 55 21.8 L54.9 21.8 Z" id="Shape" fill="#005CB9"/><path d="M58.6 23.2 L58.9 24.6 C59 25.3 58.8 25.7 58.2 25.8 C57.5 26 57.1 25.7 57 25 L56.7 24 L55.4 24.3 L55.3 23.9 L58.6 23.2 L58.6 23.2 ZM57.1 23.9 L57.3 24.8 C57.4 25.3 57.7 25.5 58.1 25.4 C58.4 25.4 58.6 25.1 58.5 24.6 L58.3 23.7 L57.1 23.9 L57.1 23.9 Z" id="Shape" fill="#005CB9"/><path d="M59.3 27 L59.3 27.5 L56.1 29.2 L56.1 28.7 L57 28.2 L56.9 26.8 L55.8 26.5 L55.8 26.1 L59.3 27 L59.3 27 ZM57.3 26.9 L57.4 28.1 L58.9 27.3 L58.9 27.3 L57.3 26.9 L57.3 26.9 Z" id="Shape" fill="#005CB9"/><path d="M59.5 29.5 L59.5 29.9 L56.5 29.9 L56.5 31.7 L56.1 31.7 L56.1 29.5 L59.5 29.5 L59.5 29.5 Z" id="Shape" fill="#005CB9"/><path d="M57.9 36.1 C58.4 36.1 58.8 35.7 58.8 35.2 C58.9 34.4 58.3 34 57.7 33.9 C56.9 33.8 56.2 34 56.1 34.8 C56 35.4 56.4 35.8 56.9 35.9 L56.8 36.4 C56 36.2 55.6 35.6 55.7 34.7 C55.9 33.7 56.7 33.3 57.7 33.4 C58.6 33.6 59.4 34.3 59.2 35.3 C59.1 36 58.6 36.5 57.9 36.5 L57.9 36.1 L57.9 36.1 Z" id="Shape" fill="#005CB9"/><path d="M58.7 37.6 L58.5 38 L57.2 37.6 L56.7 39.3 L58.1 39.7 L57.9 40.2 L54.7 39.2 L54.8 38.8 L56.3 39.2 L56.8 37.5 L55.3 37.1 L55.4 36.6 L58.7 37.6 L58.7 37.6 Z" id="Shape" fill="#005CB9"/><path d="M54.5 42.8 C53.7 42.5 53.6 41.9 53.9 41.1 C54.2 40.3 54.8 40 55.6 40.3 L57.6 41.2 L57.4 41.6 L55.4 40.7 C54.9 40.5 54.5 40.7 54.3 41.2 C54 41.8 54.2 42.2 54.8 42.4 L56.7 43.3 L56.5 43.7 L54.5 42.8 L54.5 42.8 Z" id="Shape" fill="#005CB9"/><path d="M56 44.6 L55.2 46 C54.9 46.6 54.4 46.7 54 46.5 C53.6 46.3 53.4 45.9 53.5 45.5 L53.5 45.5 C53.2 45.8 53 45.7 52.7 45.6 C52.4 45.5 52.1 45.2 51.8 45.3 L52 44.9 C52.2 44.8 52.5 45.1 52.8 45.2 C53.1 45.3 53.4 45.4 53.6 45 L54.1 44 L52.9 43.3 L53.1 42.9 L56 44.6 L56 44.6 ZM54 45.1 C53.8 45.4 53.7 45.8 54.1 46 C54.4 46.2 54.7 46.2 54.9 45.8 L55.5 44.8 L54.5 44.2 L54 45.1 L54 45.1 Z" id="Shape" fill="#005CB9"/><path d="M51.9 49 C52.4 49.2 52.8 49 53.1 48.7 C53.6 48 53.3 47.3 52.7 46.9 C52.1 46.4 51.4 46.3 50.9 46.9 C50.5 47.4 50.7 48 51.1 48.3 L50.8 48.7 C50.2 48.1 50.1 47.4 50.6 46.7 C51.3 45.8 52.2 45.9 53 46.5 C53.7 47.1 54 48.1 53.4 48.9 C52.9 49.5 52.3 49.7 51.7 49.3 L51.9 49 L51.9 49 Z" id="Shape" fill="#005CB9"/><path d="M51.8 50.7 L51.5 51 L50.5 49.9 L49.2 51.2 L50.3 52.3 L49.9 52.6 L47.6 50.2 L47.9 49.8 L49 50.9 L50.2 49.7 L49.1 48.6 L49.4 48.3 L51.8 50.7 L51.8 50.7 Z" id="Shape" fill="#005CB9"/></g><g id="Group"><path d="M13.0366492 55.9 C26.6858639 65.3 45.3 61.6 54.7 47.7 C64.0837696 33.7 60.6 14.7 47 5.3 C33.3141361 -4.2 14.7 -0.5 5.3 13.5 C-4.08376963 27.5 -0.6 46.4 13 55.9 L13.0366492 55.9 Z" id="Shape"/><path d="M17.5602094 55.6 C17.9842932 55.8 18.1 56.3 17.9 56.8 C17.7329843 57.2 17.2 57.4 16.8 57.2 C16.3979058 57 16.2 56.4 16.4 56 C16.6335079 55.6 17.1 55.4 17.6 55.6 L17.5602094 55.6 Z" id="Shape" fill="#C6093B"/><path d="M21.1884817 56.3 L21.7853403 56.5 L21.9581152 60.1 L21.3612565 59.9 L21.3455497 58.9 L20.0732984 58.5 L19.4921466 59.3 L18.9109948 59.1 L21.1884817 56.3 L21.1884817 56.3 Z M20.3560209 58.1 L21.3298429 58.5 L21.2984293 56.9 L21.2827225 56.9 L20.3560209 58.1 L20.3560209 58.1 Z" id="Shape" fill="#C6093B"/><path d="M22.5549738 59.6 L23.1832461 59.7 L23.026178 60.3 L22.3979058 60.2 L22.5549738 59.6 L22.5549738 59.6 Z" id="Shape" fill="#C6093B"/><path d="M24.3926702 57.2 L25.7748691 57.4 C26.7958115 57.6 27.1 58.4 27 59.3 C26.8429319 60.2 26.3 60.9 25.3 60.8 L23.8743455 60.5 L24.3926702 57.2 L24.3926702 57.2 Z M24.5340314 60.2 L25.0994764 60.3 C26.0104712 60.4 26.3 59.9 26.4 59.2 C26.4973822 58.6 26.4 58 25.5 57.8 L24.895288 57.8 L24.5340314 60.2 L24.5340314 60.2 Z" id="Shape" fill="#C6093B"/><path d="M27.4240838 60.4 L28.0837696 60.4 L28.0366492 61.1 L27.3769634 61 L27.4240838 60.4 L27.4240838 60.4 Z" id="Shape" fill="#C6093B"/><path d="M30.0157068 58.4 C30.4712042 58.3 30.9 58.2 30.9 57.8 L31.382199 57.7 L31.539267 61.1 L30.9581152 61.1 L30.8481675 58.8 L30.0314136 58.8 L30.0157068 58.4 L30.0157068 58.4 Z" id="Shape" fill="#C6093B"/><path d="M32.4031414 57.7 L34.6335079 57.4 L34.6963351 57.8 C34.1308901 58.7 33.8 59.6 33.9 60.8 L33.2984293 60.9 C33.2198953 59.9 33.6 58.8 34.2 57.9 L32.4659686 58.1 L32.4031414 57.7 L32.4031414 57.7 Z" id="Shape" fill="#C6093B"/><path d="M35.4031414 59.6 C35.3089005 59.2 35.5 58.8 35.8 58.7 L35.7958115 58.6 C35.4816754 58.6 35.3 58.4 35.2 58.1 C35.0575916 57.5 35.3 57.1 36 57 C36.6125654 56.8 37.1 57.1 37.2 57.6 C37.2565445 57.9 37.1 58.2 36.9 58.4 L36.8795812 58.4 C37.2565445 58.4 37.6 58.6 37.6 59.1 C37.8062827 59.7 37.4 60.2 36.8 60.3 C36.1256545 60.5 35.5 60.2 35.4 59.6 L35.4031414 59.6 Z M35.6858639 58 C35.7643979 58.3 36 58.4 36.3 58.4 C36.5811518 58.3 36.8 58.1 36.7 57.8 C36.6125654 57.4 36.3 57.3 36.1 57.4 C35.7958115 57.4 35.6 57.7 35.7 58 L35.6858639 58 Z M37.1465969 59.2 C37.0680628 58.8 36.8 58.7 36.4 58.8 C36.0628272 58.8 35.8 59.1 35.9 59.5 C36.0314136 59.9 36.3 60 36.7 59.9 C37.0209424 59.9 37.2 59.6 37.1 59.2 L37.1465969 59.2 Z" id="Shape" fill="#C6093B"/><path d="M37.6963351 56.6 L39.3141361 56 L39.4712042 56.5 L38.2303665 56.9 L38.3403141 57.8 L38.3560209 57.8 C38.4502618 57.5 38.6 57.4 38.9 57.3 C39.4712042 57.1 40 57.4 40.2 58 C40.3664921 58.5 40.3 59.3 39.5 59.5 C38.9057592 59.7 38.3 59.6 38.1 58.9 L38.591623 58.8 C38.7329843 59.1 39 59.2 39.3 59.1 C39.7853403 59 39.8 58.6 39.7 58.2 C39.5811518 57.9 39.3 57.6 38.9 57.8 C38.6544503 57.8 38.5 58 38.5 58.2 L37.9633508 58.4 L37.6963351 56.6 L37.6963351 56.6 Z" id="Shape" fill="#C6093B"/><path d="M42.0628272 55.6 C42.486911 55.4 43 55.6 43.2 56 C43.3979058 56.4 43.2 56.9 42.8 57.1 C42.3926702 57.4 41.9 57.2 41.7 56.8 C41.4816754 56.3 41.7 55.8 42.1 55.6 L42.0628272 55.6 Z" id="Shape" fill="#C6093B"/></g></g></g></g></g></svg>
