<?xml version="1.0" encoding="UTF-8" standalone="no"?><!DOCTYPE svg PUBLIC "-//W3C//DTD SVG 1.1//EN" "http://www.w3.org/Graphics/SVG/1.1/DTD/svg11.dtd"><svg width="100%" height="100%" viewBox="0 0 158 203" version="1.1" xmlns="http://www.w3.org/2000/svg" xmlns:xlink="http://www.w3.org/1999/xlink" xml:space="preserve" xmlns:serif="http://www.serif.com/" style="fill-rule:evenodd;clip-rule:evenodd;"><rect id="Artboard1" x="0" y="0" width="158" height="203" style="fill:none;"/><clipPath id="_clip1"><rect x="0" y="0" width="158" height="203"/></clipPath><g clip-path="url(#_clip1)"><g id="gc-shield"><g><g id="Precious_Miter"><g id="Cap"><path id="Cap_Background" d="M78.884,1.613c-5.698,1.113 -20.303,9.758 -27.442,18.011c-17.028,19.648 -17.028,28.424 -17.028,28.424c0,0 7.597,6.615 9.234,9.956c0,0 -1.244,1.571 -0.196,2.685c1.048,1.048 2.161,0.196 2.161,0.196c0,0 6.157,-4.453 18.142,-5.894c11.593,-1.441 15.129,-1.441 15.129,-1.441c0,0 3.537,0 15.13,1.441c11.985,1.441 19.255,6.025 19.255,6.025c0,0 1.9,0.786 2.947,-0.327c1.048,-1.048 -0.196,-2.685 -0.196,-2.685c1.637,-3.341 9.235,-9.956 9.235,-9.956c0,0 -0.524,-9.496 -18.928,-29.407c-7.467,-7.99 -21.81,-15.915 -27.443,-17.028Z" style="fill:#3e8ede;fill-rule:nonzero;stroke:#005cb9;stroke-width:0.88px;"/><g id="Center_Accents"><path id="Left_Cap_Accent" d="M43.583,57.938c0,0 8.121,-3.864 11.265,-4.715c7.597,-2.162 16.177,-2.555 16.177,-2.555l0,-45.06l2.227,-0.197l0.262,48.204l-27.901,7.074c0,0 -2.096,0.851 -2.751,-0.786c-0.786,-1.572 0.721,-1.965 0.721,-1.965Z" style="fill:#fff;fill-rule:nonzero;stroke:#005cb9;stroke-width:0.49px;"/><path id="Right_Cap_Accent" d="M116.02,57.938c0,0 -8.514,-3.078 -14.671,-4.977c-6.156,-1.9 -13.95,-2.227 -13.95,-2.227l0,-45.519l-2.423,-0.721l-0.917,49.187l29.734,7.728c0,0 1.9,0.262 2.554,-1.375c0.655,-1.703 -0.327,-2.096 -0.327,-2.096Z" style="fill:#fff;fill-rule:nonzero;stroke:#005cb9;stroke-width:0.49px;"/></g><path id="Center_Cap_Dark" d="M85.368,53.681l0,-46.894c0,-1.376 1.834,-1.441 1.834,-1.441l-8.318,-3.537l-7.728,3.537c0,0 1.768,0.065 1.768,1.441l0,46.828c-18.076,1.179 -28.359,7.401 -28.359,7.401c0,0 0.917,0.917 1.638,3.799c0.72,2.816 0.458,4.716 0.458,4.716c0,0 6.877,-6.222 32.158,-6.157c27.508,0.066 32.42,6.877 32.42,6.877c0,0 0.262,-1.441 1.441,-4.715c1.179,-3.275 1.899,-4.258 1.899,-4.258c0,0 -11.199,-6.287 -29.211,-7.597Z" style="fill:#005cb9;fill-rule:nonzero;stroke:#005cb9;stroke-width:0.65px;"/><g id="Left_Gem"><path d="M52.032,30.627l9.824,8.056l-5.24,11.199l-9.431,-7.27l4.847,-11.985Z" style="fill:#fff;fill-rule:nonzero;stroke:#005cb9;stroke-width:0.44px;"/><path d="M52.752,33.509l6.877,5.632l-3.668,7.86l-6.615,-5.109l3.406,-8.383Z" style="fill:none;stroke:#005cb9;stroke-width:0.62px;"/><path d="M52.687,34.491l-2.686,7.073l4.061,-1.178l-1.375,-5.895Z" style="fill:#005cb9;fill-rule:nonzero;stroke:#005cb9;stroke-width:0.88px;"/><path d="M54.979,40.844l1.113,5.24l2.948,-6.484l-4.061,1.244Z" style="fill:#005cb9;fill-rule:nonzero;stroke:#005cb9;stroke-width:0.88px;"/></g><g id="Right_Gem"><path d="M106.916,31.413l-9.758,8.056l5.174,11.199l9.496,-7.27l-4.912,-11.985Z" style="fill:#fff;fill-rule:nonzero;stroke:#005cb9;stroke-width:0.44px;"/><path d="M106.196,34.295l-6.812,5.632l3.603,7.859l6.615,-5.108l-3.406,-8.383Z" style="fill:none;stroke:#005cb9;stroke-width:0.62px;"/><path d="M105.41,35.473l-5.305,4.127l4.453,1.31l0.852,-5.437Z" style="fill:#005cb9;fill-rule:nonzero;stroke:#005cb9;stroke-width:0.88px;"/><path d="M103.576,46.935l1.375,-5.305l4.127,1.375l-5.502,3.93Z" style="fill:#005cb9;fill-rule:nonzero;stroke:#005cb9;stroke-width:0.88px;"/></g><ellipse id="Cap_Exterior_Shadow" cx="78.623" cy="70.906" rx="32.813" ry="8.383" style="fill:#fff;stroke:#005cb9;stroke-width:0.65px;"/><path id="Cap_Interior_Shadow" d="M78.623,77.194c16.046,0 29.079,-2.424 29.079,-5.371c0,-2.947 -13.033,-6.026 -29.079,-6.026c-16.047,0 -29.08,3.013 -29.08,6.026c-0.066,2.947 12.968,5.371 29.08,5.371Z" style="fill:#005cb9;fill-rule:nonzero;stroke:#005cb9;stroke-width:0.65px;"/></g><g id="Precious_Stones"><g id="Left_Stones"><g id="Left_Stone_Right"><circle cx="69.388" cy="58.266" r="3.144" style="fill:#fff;stroke:#005cb9;stroke-width:0.88px;"/><path d="M67.685,59.706c0.393,0.393 0.982,0.655 1.572,0.655c1.244,0 2.227,-0.982 2.227,-2.226c0,-1.245 -0.786,0.327 -1.9,0.786c-1.179,0.458 -2.358,0.393 -1.899,0.785Z" style="fill:#005cb9;fill-rule:nonzero;"/></g><g id="Left_Stone_Middle"><circle cx="60.349" cy="59.706" r="3.013" style="fill:#fff;stroke:#005cb9;stroke-width:0.88px;"/><path d="M58.778,61.147c0.393,0.393 0.917,0.655 1.506,0.655c1.179,0 2.161,-0.982 2.161,-2.161c0,-1.179 -0.72,0.327 -1.834,0.786c-1.113,0.393 -2.226,0.327 -1.833,0.72Z" style="fill:#005cb9;fill-rule:nonzero;"/></g><g id="Left_Stone_Left"><circle cx="51.246" cy="62.195" r="2.882" style="fill:#fff;stroke:#005cb9;stroke-width:0.88px;"/><path d="M49.805,63.505c0.393,0.393 0.917,0.59 1.441,0.59c1.113,0 2.096,-0.917 2.096,-2.096c0,-1.114 -0.721,0.327 -1.769,0.72c-1.113,0.524 -2.161,0.393 -1.768,0.786Z" style="fill:#005cb9;fill-rule:nonzero;"/></g></g><g id="Right_Stones"><g id="Right_Stone_Right"><circle cx="108.292" cy="62.85" r="2.882" style="fill:#fff;stroke:#005cb9;stroke-width:0.88px;"/><path d="M106.785,64.16c0.393,0.393 0.917,0.59 1.441,0.59c1.114,0 2.096,-0.917 2.096,-2.096c0,-1.114 -0.72,0.327 -1.768,0.72c-1.114,0.459 -2.162,0.393 -1.769,0.786Z" style="fill:#005cb9;fill-rule:nonzero;"/></g><g id="Right_Stone_Middle"><circle cx="98.86" cy="60.23" r="3.013" style="fill:#fff;stroke:#005cb9;stroke-width:0.88px;"/><path d="M97.158,61.671c0.392,0.393 0.916,0.655 1.506,0.655c1.179,0 2.161,-0.982 2.161,-2.161c0,-1.179 -0.72,0.327 -1.834,0.786c-1.048,0.458 -2.161,0.327 -1.833,0.72Z" style="fill:#005cb9;fill-rule:nonzero;"/></g><g id="Right_Stone_Left"><circle cx="89.036" cy="58.397" r="3.144" style="fill:#fff;stroke:#005cb9;stroke-width:0.88px;"/><path d="M87.333,59.837c0.393,0.393 0.983,0.655 1.572,0.655c1.245,0 2.227,-0.982 2.227,-2.226c0,-1.245 -0.786,0.327 -1.899,0.786c-1.114,0.458 -2.293,0.327 -1.9,0.785Z" style="fill:#005cb9;fill-rule:nonzero;"/></g></g><g id="Center_Stones"><g id="Center_Stone_Bottom"><circle cx="78.884" cy="56.301" r="3.799" style="fill:#fff;stroke:#005cb9;stroke-width:0.88px;"/><path d="M76.723,58.004c0.459,0.458 1.179,0.786 1.9,0.786c1.506,0 2.685,-1.179 2.685,-2.686c0,-1.506 -0.917,0.393 -2.293,0.983c-1.375,0.524 -2.75,0.393 -2.292,0.917Z" style="fill:#005cb9;fill-rule:nonzero;"/></g><g id="Center_Stone_Middle_Bottom"><circle cx="78.884" cy="45.363" r="3.799" style="fill:#fff;stroke:#005cb9;stroke-width:0.88px;"/><path d="M76.789,47.066c0.458,0.458 1.179,0.786 1.899,0.786c1.506,0 2.685,-1.179 2.685,-2.685c0,-1.507 -0.917,0.393 -2.292,0.982c-1.375,0.524 -2.751,0.459 -2.292,0.917Z" style="fill:#005cb9;fill-rule:nonzero;"/></g><g id="Center_Stone_Middle"><circle cx="78.884" cy="32.592" r="3.799" style="fill:#fff;stroke:#005cb9;stroke-width:0.88px;"/><path d="M76.789,34.295c0.458,0.458 1.179,0.785 1.899,0.785c1.506,0 2.685,-1.178 2.685,-2.685c0,-1.506 -0.917,0.393 -2.292,0.983c-1.375,0.589 -2.751,0.458 -2.292,0.917Z" style="fill:#005cb9;fill-rule:nonzero;"/></g><g id="Center_Stone_Middle_Top"><circle cx="78.884" cy="20.737" r="3.799" style="fill:#fff;stroke:#005cb9;stroke-width:0.88px;"/><path d="M76.854,22.636c0.459,0.459 1.179,0.786 1.9,0.786c1.506,0 2.685,-1.178 2.685,-2.685c0,-1.506 -0.917,0.393 -2.293,0.983c-1.375,0.524 -2.75,0.458 -2.292,0.916Z" style="fill:#005cb9;fill-rule:nonzero;"/></g><g id="Center_Stone_Top"><circle cx="78.884" cy="8.686" r="3.799" style="fill:#fff;stroke:#005cb9;stroke-width:0.88px;"/><path d="M76.985,10.454c0.459,0.459 1.179,0.786 1.899,0.786c1.507,0 2.686,-1.179 2.686,-2.685c0,-1.506 -0.917,0.393 -2.293,0.983c-1.375,0.523 -2.75,0.458 -2.292,0.916Z" style="fill:#005cb9;fill-rule:nonzero;"/></g></g></g><g id="Right_Lappet"><path id="Right_Lappet_Outline" d="M100.301,67.959c0,0 -0.131,3.799 6.026,8.711c6.484,2.947 11.134,0.524 11.789,-4.52c0.393,-3.143 1.899,-9.431 5.37,-12.902c2.096,-2.096 11.855,-5.371 14.802,-5.043c4.061,0.458 12.903,5.174 17.356,16.57c3.865,9.89 -4.126,34.843 -4.126,34.843c0,0 -14.802,-1.244 -16.374,-4.715c-1.571,-3.472 2.555,-6.615 5.044,-15.457c2.554,-8.842 1.702,-13.885 0,-16.701c-3.734,-6.091 -5.698,-6.222 -6.288,-6.026c-3.013,0.917 -2.947,8.253 -3.93,11.2c-1.964,5.763 -4.715,7.008 -7.401,7.335c-6.091,0.786 -17.29,1.179 -22.661,-0.065c-2.816,-0.655 -4.846,-2.031 -8.318,-6.812c-3.471,-4.715 -3.143,-8.121 -3.143,-8.121c0,0 4.191,0.655 5.829,0.851c1.375,0.197 6.025,0.852 6.025,0.852Z" style="fill:#fff;fill-rule:nonzero;stroke:#005cb9;stroke-width:0.65px;"/><g id="Right_Lappet_Shadow"><path d="M129.381,59.052c-3.34,-0.393 -5.764,-0.066 -6.746,0.851c-4.257,4.192 -3.602,15.195 -7.663,17.291c-4.847,2.488 -10.348,-1.965 -10.348,-1.965c0,0 5.96,7.532 13.885,6.418c13.688,-0.262 10.675,-12.837 14.474,-18.404c1.114,-1.637 4.912,2.162 4.912,2.162c0,0 -3.536,-5.764 -8.514,-6.353Z" style="fill:#005cb9;fill-rule:nonzero;"/><path d="M129.381,59.052c-3.34,-0.393 -5.764,-0.066 -6.746,0.851c-4.257,4.192 -3.602,15.195 -7.663,17.291c-4.847,2.488 -10.348,-1.965 -10.348,-1.965c0,0 5.96,7.532 13.885,6.418c13.688,-0.262 10.675,-12.837 14.474,-18.404c1.114,-1.637 4.912,2.162 4.912,2.162c0,0 -3.536,-5.764 -8.514,-6.353Z" style="fill:none;stroke:#005cb9;stroke-width:0.49px;"/></g><g id="Right_Lappet_Fringes"><path id="Right_Lappet_Fringe_-_Outline" d="M151.322,105.422c0,0 2.75,3.864 2.488,6.484c-0.262,2.62 -1.899,5.436 -2.161,7.794c-0.262,2.357 2.096,2.554 1.441,3.798c-2.096,1.9 -3.995,-0.524 -3.995,-3.995c0,-1.441 0.589,-2.882 0.851,-4.257c0.262,-1.375 0.524,-3.995 0.328,-3.209c-0.197,0.655 -0.655,1.703 -0.983,3.602c-0.196,1.113 -0.72,2.292 -0.786,3.537c-0.065,1.637 0.459,3.34 1.048,4.257c0.393,0.655 -0.589,0.917 -1.572,0.262c-0.786,-0.524 -1.506,-2.031 -1.506,-2.031c0,0 -0.327,1.245 -1.048,1.245c-0.72,0 -1.441,-1.703 -1.441,-1.703c0,0 -0.655,1.179 -1.31,1.179c-0.72,0 -1.048,-4.912 -1.048,-4.912c-0.065,-0.524 -0.065,4.322 -0.524,4.388c-1.178,0.196 -1.506,-1.637 -1.506,-1.637c0,0 -0.393,1.113 -1.572,0.851c-1.179,-0.262 -1.244,-2.03 -1.244,-2.03c0,0 -0.393,1.179 -1.834,1.179c-1.899,0 -2.227,-1.507 -2.227,-1.507c0.066,-0.131 2.882,0 1.965,-3.602c-1.113,-4.454 -2.227,-4.061 -2.03,-10.283c0.196,-5.698 2.095,-5.698 2.095,-5.698c0,0.328 0.066,2.686 2.227,3.341c3.537,1.047 14.344,2.947 14.344,2.947Z" style="fill:#fff;fill-rule:nonzero;stroke:#005cb9;stroke-width:0.65px;"/><g id="Right_Lappet_Fringe_-_Solid"><path d="M135.734,104.177c0,0 -1.048,3.275 -0.852,5.371c0.066,0.851 0.852,2.096 1.31,3.34c0.721,1.965 0.852,4.257 0.852,4.257c0,0 -0.262,-8.055 -0.459,-9.431c-0.262,-1.375 -0.851,-3.537 -0.851,-3.537Z" style="fill:#005cb9;fill-rule:nonzero;"/><path d="M138.092,105.16c-0.066,0.065 1.441,3.537 1.506,5.698c0.131,2.161 -0.327,6.025 -0.327,6.025c0,0 -0.131,-4.126 -0.852,-6.156c-0.655,-1.965 -0.327,-5.567 -0.327,-5.567Z" style="fill:#005cb9;fill-rule:nonzero;"/><path d="M141.17,106.142c0,0.066 0.917,2.031 0.917,3.537c0,1.506 -0.459,2.816 -0.459,2.816c0,0 -0.065,-2.816 -0.131,-3.798c0,-0.59 -0.327,-2.555 -0.327,-2.555Z" style="fill:#005cb9;fill-rule:nonzero;"/><path d="M144.248,106.928c0,0 1.114,2.62 1.114,3.93c0,1.31 -0.59,2.62 -0.917,4.257c-0.328,1.506 -0.328,4.323 -0.328,4.323c0,0 -0.458,-2.555 -0.458,-4.323c0,-1.768 0.982,-2.03 0.982,-4.257c0,-2.227 -0.393,-3.93 -0.393,-3.93Z" style="fill:#005cb9;fill-rule:nonzero;"/><path d="M147.654,109.941c0,0 0.196,2.62 0.065,3.406c-0.131,0.851 -0.262,1.048 -0.524,2.161c-0.327,1.375 -0.851,3.995 -0.851,3.995c0,0 0.066,-3.144 0.197,-3.995c0.131,-0.851 0.458,-1.441 0.589,-2.227c0.131,-0.851 0.524,-3.34 0.524,-3.34Z" style="fill:#005cb9;fill-rule:nonzero;"/></g></g></g><g id="Left_Lappet"><g id="Left_Lappet_Outline"><path d="M64.803,66.583c-1.375,0.197 -7.27,1.179 -7.27,1.179c0,0 -0.393,3.21 -6.549,8.122c-6.484,4.388 -10.872,1.244 -11.527,-3.799c-0.393,-3.144 -1.9,-9.431 -5.371,-12.902c-2.096,-2.096 -4.912,-3.341 -6.68,-3.799c-4.389,-1.179 -5.174,-1.507 -8.187,-1.245c-4.061,0.459 -12.903,5.175 -17.356,16.571c-3.864,9.889 4.126,34.843 4.126,34.843c0,0 14.802,-1.245 16.374,-4.716c1.571,-3.471 -2.555,-6.615 -5.044,-15.457c-2.554,-8.841 -1.702,-13.884 0,-16.701c3.734,-6.091 5.698,-6.222 6.288,-6.025c3.013,0.917 3.668,7.466 5.502,10.872c2.816,5.174 3.602,7.532 5.698,8.383c3.34,1.31 15.391,0.917 20.368,0c3.21,-0.589 7.205,-2.816 10.676,-7.532c3.471,-4.715 3.537,-8.187 3.537,-8.187c0,0 -2.948,0.197 -4.585,0.393Z" style="fill:#fff;fill-rule:nonzero;"/><path d="M64.803,66.583c-1.375,0.197 -7.27,1.179 -7.27,1.179c0,0 -0.393,3.21 -6.549,8.122c-6.484,4.388 -10.872,1.244 -11.527,-3.799c-0.393,-3.144 -1.9,-9.431 -5.371,-12.902c-2.096,-2.096 -4.912,-3.341 -6.68,-3.799c-4.389,-1.179 -5.174,-1.507 -8.187,-1.245c-4.061,0.459 -12.903,5.175 -17.356,16.571c-3.864,9.889 4.126,34.843 4.126,34.843c0,0 14.802,-1.245 16.374,-4.716c1.571,-3.471 -2.555,-6.615 -5.044,-15.457c-2.554,-8.841 -1.702,-13.884 0,-16.701c3.734,-6.091 5.698,-6.222 6.288,-6.025c3.013,0.917 3.668,7.466 5.502,10.872c2.816,5.174 3.602,7.532 5.698,8.383c3.34,1.31 15.391,0.917 20.368,0c3.21,-0.589 7.205,-2.816 10.676,-7.532c3.471,-4.715 3.537,-8.187 3.537,-8.187c0,0 -2.948,0.197 -4.585,0.393Z" style="fill:none;stroke:#005cb9;stroke-width:0.65px;"/></g><g id="Left_Lappet_Shadow"><g><path d="M51.704,75.425c0.59,-0.458 0.917,-0.786 0.917,-0.786c0,0 -0.327,0.262 -0.917,0.786Z" style="fill:#005cb9;fill-rule:nonzero;"/><path d="M42.6,77.325c-4.06,-2.096 -3.471,-13.099 -7.662,-17.291c-0.983,-0.917 -4.258,-2.227 -6.877,-1.31c-2.686,0.917 -9.301,4.912 -10.611,10.348c0,0 4.323,-7.466 6.353,-6.418c4.651,2.423 5.044,18.928 13.689,19.255c4.715,1.114 11.789,-4.388 14.278,-6.549c-1.769,1.441 -5.502,3.864 -9.17,1.965Z" style="fill:#005cb9;fill-rule:nonzero;"/></g><g><path d="M51.704,75.425c0.59,-0.458 0.917,-0.786 0.917,-0.786c0,0 -0.327,0.262 -0.917,0.786Z" style="fill:none;stroke:#005cb9;stroke-width:0.49px;"/><path d="M42.6,77.325c-4.06,-2.096 -3.471,-13.099 -7.662,-17.291c-0.983,-0.917 -4.258,-2.227 -6.877,-1.31c-2.686,0.917 -9.301,4.912 -10.611,10.348c0,0 4.323,-7.466 6.353,-6.418c4.651,2.423 5.044,18.928 13.689,19.255c4.715,1.114 11.789,-4.388 14.278,-6.549c-1.769,1.441 -5.502,3.864 -9.17,1.965Z" style="fill:none;stroke:#005cb9;stroke-width:0.49px;"/></g></g><g id="Left_Lappet_Fringes"><path id="Left_Lappet_Fringe_-_Outline" d="M6.12,105.618c0,0 -2.751,3.144 -2.489,5.764c0.262,2.62 1.899,5.436 2.161,7.794c0.262,2.358 -2.095,2.554 -1.441,3.798c2.096,1.9 3.996,-0.524 3.996,-3.995c0,-1.441 -0.59,-2.882 -0.852,-4.257c-0.262,-1.375 -0.458,-4.061 -0.327,-3.209c0.131,0.786 0.655,1.703 0.982,3.602c0.197,1.113 0.721,2.292 0.786,3.537c0.066,1.637 -0.458,3.34 -1.048,4.257c-0.393,0.655 0.59,0.917 1.572,0.262c0.786,-0.524 1.506,-2.03 1.506,-2.03c0,0 0.328,1.244 1.048,1.244c0.721,0 1.441,-1.703 1.441,-1.703c0,0 0.655,1.179 1.31,1.179c0.721,0 0.983,-6.157 1.048,-4.912c0.066,1.048 0.066,4.323 0.524,4.388c1.179,0.197 1.506,-1.637 1.506,-1.637c0,0 0.393,1.113 1.572,0.851c1.179,-0.262 1.245,-2.03 1.245,-2.03c0,0 0.393,1.179 1.834,1.179c1.899,0 2.488,-1.638 2.488,-1.638c-0.196,-0.131 -2.226,-2.554 -2.095,-4.257c0.196,-2.161 1.899,-2.489 2.095,-8.449c0.197,-5.305 -1.899,-5.239 -1.899,-5.239c-1.179,1.244 -0.786,2.489 -4.781,3.405c-3.078,0.59 -12.182,2.096 -12.182,2.096Z" style="fill:#fff;fill-rule:nonzero;stroke:#005cb9;stroke-width:0.65px;"/><g id="Left_Lappet_Fringe_-_Solid"><path d="M22.166,103.326c0,0 1.048,3.275 0.851,5.371c-0.065,0.851 -0.851,2.095 -1.309,3.34c-0.721,1.965 -1.114,3.995 -1.114,3.995c0,0 0.524,-7.728 0.786,-9.169c0.197,-1.376 0.786,-3.537 0.786,-3.537Z" style="fill:#005cb9;fill-rule:nonzero;"/><path d="M19.35,104.701c-0.131,0.131 -1.441,3.472 -1.572,5.633c-0.131,2.161 0.327,6.025 0.327,6.025c0,0 0.131,-4.126 0.852,-6.156c0.72,-2.03 0.393,-5.502 0.393,-5.502Z" style="fill:#005cb9;fill-rule:nonzero;"/><path d="M16.272,105.553c0,0.131 -0.917,2.03 -0.917,3.537c0,1.506 0.458,2.816 0.458,2.816c0,0 0.066,-2.816 0.131,-3.799c0,-0.589 0.328,-2.554 0.328,-2.554Z" style="fill:#005cb9;fill-rule:nonzero;"/><path d="M13.193,106.404c0,0 -1.113,2.62 -1.113,3.93c0,1.31 0.589,2.62 0.917,4.257c0.327,1.506 0.327,4.323 0.327,4.323c0,0 0.459,-2.555 0.459,-4.323c0,-1.768 -0.983,-2.03 -0.983,-4.257c-0.065,-2.292 0.393,-3.93 0.393,-3.93Z" style="fill:#005cb9;fill-rule:nonzero;"/><path d="M9.722,109.351c0,0 -0.196,2.62 -0.065,3.406c0.131,0.852 0.262,1.048 0.524,2.162c0.327,1.375 0.851,3.995 0.851,3.995c0,0 -0.066,-3.144 -0.197,-3.995c-0.131,-0.852 -0.458,-1.441 -0.589,-2.227c-0.065,-0.852 -0.524,-3.341 -0.524,-3.341Z" style="fill:#005cb9;fill-rule:nonzero;"/></g></g></g></g><g id="Shield"><path id="Shield_Background" d="M78.884,81.909l-53.705,0l0,60.059c0,0 1.441,22.923 15.195,39.035c16.701,19.452 38.51,21.024 38.51,21.024c0,0 21.81,-1.572 38.511,-21.024c13.82,-16.112 15.195,-39.035 15.195,-39.035l0,-60.059l-53.706,0Z" style="fill:#fff;fill-rule:nonzero;"/><g id="Saltire"><rect id="Azure" x="25.179" y="81.909" width="44.274" height="44.274" style="fill:#005cb9;"/><g id="Cross_Crosslets"><path d="M37.623,117.931l0,-0.589l-0.983,0l0,0.589l-3.274,0l0,-3.274l0.655,0l0,-1.048l-0.655,0l0,-0.983l-0.983,0l0,0.983l-0.655,0l0,1.048l0.655,0l0,3.274l-3.209,0l0,-0.589l-1.048,0l0,0.589l-1.048,0l0,1.048l1.048,0l0,0.655l1.048,0l0,-0.655l3.209,0l0,3.275l-0.72,0l0,0.982l0.72,0l0,1.048l0.983,0l0,-1.048l0.589,0l0,-0.982l-0.589,0l0,-3.275l3.274,0l0,0.655l0.983,0l0,-0.655l1.048,0l0,-1.048l-1.048,0Z" style="fill:#fff;fill-rule:nonzero;"/><path d="M44.762,110.53l0,-0.589l-1.048,0l0,0.589l-3.209,0l0,-3.274l0.655,0l0,-1.048l-0.655,0l0,-0.983l-1.048,0l0,0.983l-0.655,0l0,1.048l0.655,0l0,3.274l-3.21,0l0,-0.589l-0.982,0l0,0.589l-1.113,0l0,1.048l1.113,0l0,0.655l0.982,0l0,-0.655l3.21,0l0,3.275l-0.655,0l0,0.982l0.655,0l0,1.048l1.048,0l0,-1.048l0.589,0l0,-0.982l-0.589,0l0,-3.275l3.209,0l0,0.655l1.048,0l0,-0.655l1.048,0l0,-1.048l-1.048,0Z" style="fill:#fff;fill-rule:nonzero;"/><path d="M51.573,103.129l0,-0.589l-0.982,0l0,0.589l-3.209,0l0,-3.34l0.654,0l0,-0.982l-0.654,0l0,-0.983l-1.048,0l0,0.983l-0.655,0l0,0.982l0.655,0l0,3.34l-3.21,0l0,-0.654l-0.982,0l0,0.654l-1.113,0l0,0.983l1.113,0l0,0.655l0.982,0l0,-0.655l3.21,0l0,3.275l-0.655,0l0,1.048l0.655,0l0,0.982l1.048,0l0,-0.982l0.523,0l0,-1.048l-0.523,0l0,-3.275l3.209,0l0,0.72l0.982,0l0,-0.72l1.048,0l0,-0.983l-1.048,0Z" style="fill:#fff;fill-rule:nonzero;"/><path d="M44.696,96.122l0,-0.59l-1.048,0l0,0.59l-3.209,0l0,-3.341l0.655,0l0,-0.982l-0.655,0l0,-0.983l-1.048,0l0,0.983l-0.655,0l0,0.982l0.655,0l0,3.341l-3.209,0l0,-0.655l-0.982,0l0,0.655l-1.114,0l0,0.982l1.114,0l0,0.655l0.982,0l0,-0.655l3.209,0l0,3.275l-0.655,0l0,1.048l0.655,0l0,0.982l1.048,0l0,-0.982l0.59,0l0,-1.048l-0.59,0l0,-3.275l3.209,0l0,0.72l1.048,0l0,-0.72l1.048,0l0,-0.982l-1.048,0Z" style="fill:#fff;fill-rule:nonzero;"/><path d="M37.623,89.114l0,-0.59l-0.983,0l0,0.59l-3.209,0l0,-3.275l0.655,0l0,-1.048l-0.655,0l0,-0.982l-1.048,0l0,0.982l-0.655,0l0,1.048l0.655,0l0,3.275l-3.209,0l0,-0.59l-0.982,0l0,0.59l-1.114,0l0,1.048l1.114,0l0,0.654l0.982,0l0,-0.654l3.209,0l0,3.209l-0.655,0l0,1.048l0.655,0l0,1.048l1.048,0l0,-1.048l0.524,0l0,-1.048l-0.524,0l0,-3.209l3.209,0l0,0.654l0.983,0l0,-0.654l1.048,0l0,-1.048l-1.048,0Z" style="fill:#fff;fill-rule:nonzero;"/><path d="M58.974,96.187l0,-0.589l-1.048,0l0,0.589l-3.209,0l0,-3.34l0.655,0l0,-0.983l-0.655,0l0,-0.982l-0.982,0l0,0.982l-0.655,0l0,0.983l0.655,0l0,3.34l-3.21,0l0,-0.655l-1.048,0l0,0.655l-1.048,0l0,0.982l1.048,0l0,0.655l1.048,0l0,-0.655l3.21,0l0,3.275l-0.721,0l0,1.048l0.721,0l0,0.983l0.982,0l0,-0.983l0.589,0l0,-1.048l-0.589,0l0,-3.275l3.209,0l0,0.721l1.048,0l0,-0.721l1.048,0l0,-0.982l-1.048,0Z" style="fill:#fff;fill-rule:nonzero;"/><path d="M66.375,89.179l0,-0.524l-1.048,0l0,0.524l-3.209,0l0,-3.275l0.655,0l0,-0.982l-0.655,0l0,-1.048l-1.048,0l0,1.048l-0.655,0l0,0.982l0.655,0l0,3.275l-3.209,0l0,-0.589l-0.983,0l0,0.589l-1.048,0l0,1.048l1.048,0l0,0.655l0.983,0l0,-0.655l3.209,0l0,3.275l-0.655,0l0,0.982l0.655,0l0,1.048l1.048,0l0,-1.048l0.589,0l0,-0.982l-0.589,0l0,-3.275l3.209,0l0,0.72l1.048,0l0,-0.72l1.048,0l0,-1.048l-1.048,0Z" style="fill:#fff;fill-rule:nonzero;"/><path d="M58.778,110.727l0,-0.59l-0.983,0l0,0.59l-3.275,0l0,-3.275l0.655,0l0,-1.048l-0.655,0l0,-0.982l-0.982,0l0,0.982l-0.655,0l0,1.048l0.655,0l0,3.275l-3.209,0l0,-0.655l-1.048,0l0,0.655l-1.048,0l0,1.048l1.048,0l0,0.589l1.048,0l0,-0.589l3.209,0l0,3.209l-0.72,0l0,1.048l0.72,0l0,1.048l0.982,0l0,-1.048l0.59,0l0,-1.048l-0.59,0l0,-3.209l3.275,0l0,0.655l0.983,0l0,-0.655l1.048,0l0,-1.048l-1.048,0Z" style="fill:#fff;fill-rule:nonzero;"/><path d="M66.506,117.407l0,-0.524l-1.048,0l0,0.524l-3.209,0l0,-3.274l0.655,0l0,-1.048l-0.655,0l0,-0.983l-1.048,0l0,0.983l-0.655,0l0,1.048l0.655,0l0,3.274l-3.209,0l0,-0.589l-0.983,0l0,0.589l-1.048,0l0,1.048l1.048,0l0,0.655l0.983,0l0,-0.655l3.209,0l0,3.275l-0.655,0l0,0.982l0.655,0l0,1.048l1.048,0l0,-1.048l0.589,0l0,-0.982l-0.589,0l0,-3.275l3.209,0l0,0.721l1.048,0l0,-0.721l1.048,0l0,-1.048l-1.048,0Z" style="fill:#fff;fill-rule:nonzero;"/></g></g><path id="St._George_x27_s_Cross" d="M132.656,145.112l-44.275,0l0,54.884l-9.497,2.031l-9.496,-2.031l0,-54.884l-44.275,0l0,-18.994l44.275,0l0,-44.274l18.993,0l0,44.274l44.275,0l0,18.994Z" style="fill:#c6093b;fill-rule:nonzero;"/><path id="Shield_Border_2_" d="M78.884,81.909l-53.705,0l0,60.059c0,0 1.441,22.923 15.195,39.035c16.701,19.452 38.51,21.024 38.51,21.024c0,0 21.81,-1.572 38.511,-21.024c13.82,-16.112 15.195,-39.035 15.195,-39.035l0,-60.059l-53.706,0Z" style="fill:none;stroke:#111820;stroke-width:0.65px;"/></g><g><path d="M91.525,-6.247c59.666,7.008 102.434,61.041 95.426,120.773c-7.008,59.665 -61.041,102.433 -120.772,95.425c-59.732,-7.073 -102.434,-61.106 -95.426,-120.837c7.008,-59.666 61.041,-102.369 120.772,-95.361Z" style="fill:none;"/></g></g></g></g></svg>