<?xml version="1.0" encoding="UTF-8" standalone="no"?><!DOCTYPE svg PUBLIC "-//W3C//DTD SVG 1.1//EN" "http://www.w3.org/Graphics/SVG/1.1/DTD/svg11.dtd"><svg width="100%" height="100%" viewBox="0 0 250 259" version="1.1" xmlns="http://www.w3.org/2000/svg" xmlns:xlink="http://www.w3.org/1999/xlink" xml:space="preserve" xmlns:serif="http://www.serif.com/" style="fill-rule:evenodd;clip-rule:evenodd;"><g id="gc-shield"><g id="Precious_Miter"><g id="Cap"><path id="Cap_Background" d="M125.065,28.965c-5.698,1.113 -20.303,9.758 -27.442,18.011c-17.028,19.648 -17.028,28.424 -17.028,28.424c0,0 7.597,6.615 9.234,9.956c0,0 -1.244,1.571 -0.196,2.685c1.048,1.048 2.161,0.196 2.161,0.196c0,0 6.157,-4.453 18.142,-5.894c11.593,-1.441 15.129,-1.441 15.129,-1.441c0,0 3.537,0 15.13,1.441c11.985,1.441 19.255,6.025 19.255,6.025c0,0 1.9,0.786 2.947,-0.327c1.048,-1.048 -0.196,-2.685 -0.196,-2.685c1.637,-3.341 9.235,-9.956 9.235,-9.956c0,0 -0.524,-9.496 -18.928,-29.407c-7.467,-7.99 -21.81,-15.915 -27.443,-17.028Z" style="fill:#3e8ede;fill-rule:nonzero;stroke:#005cb9;stroke-width:0.88px;"/><g id="Center_Accents"><path id="Left_Cap_Accent" d="M89.764,85.29c0,0 8.121,-3.864 11.265,-4.715c7.597,-2.162 16.177,-2.555 16.177,-2.555l0,-45.06l2.227,-0.197l0.262,48.204l-27.901,7.074c0,0 -2.096,0.851 -2.751,-0.786c-0.786,-1.572 0.721,-1.965 0.721,-1.965Z" style="fill:#fff;fill-rule:nonzero;stroke:#005cb9;stroke-width:0.49px;"/><path id="Right_Cap_Accent" d="M162.201,85.29c0,0 -8.514,-3.078 -14.671,-4.977c-6.156,-1.9 -13.95,-2.227 -13.95,-2.227l0,-45.519l-2.423,-0.721l-0.917,49.187l29.734,7.728c0,0 1.9,0.262 2.554,-1.375c0.655,-1.703 -0.327,-2.096 -0.327,-2.096Z" style="fill:#fff;fill-rule:nonzero;stroke:#005cb9;stroke-width:0.49px;"/></g><path id="Center_Cap_Dark" d="M131.549,81.033l0,-46.894c0,-1.376 1.834,-1.441 1.834,-1.441l-8.318,-3.537l-7.728,3.537c0,0 1.768,0.065 1.768,1.441l0,46.828c-18.076,1.179 -28.359,7.401 -28.359,7.401c0,0 0.917,0.917 1.638,3.799c0.72,2.816 0.458,4.716 0.458,4.716c0,0 6.877,-6.222 32.158,-6.157c27.508,0.066 32.42,6.877 32.42,6.877c0,0 0.262,-1.441 1.441,-4.715c1.179,-3.275 1.899,-4.258 1.899,-4.258c0,0 -11.199,-6.287 -29.211,-7.597Z" style="fill:#005cb9;fill-rule:nonzero;stroke:#005cb9;stroke-width:0.65px;"/><g id="Left_Gem"><path d="M98.213,57.979l9.824,8.056l-5.24,11.199l-9.431,-7.27l4.847,-11.985Z" style="fill:#fff;fill-rule:nonzero;stroke:#005cb9;stroke-width:0.44px;"/><path d="M98.933,60.861l6.877,5.632l-3.668,7.86l-6.615,-5.109l3.406,-8.383Z" style="fill:none;stroke:#005cb9;stroke-width:0.62px;"/><path d="M98.868,61.843l-2.686,7.073l4.061,-1.178l-1.375,-5.895Z" style="fill:#005cb9;fill-rule:nonzero;stroke:#005cb9;stroke-width:0.88px;"/><path d="M101.16,68.196l1.113,5.24l2.948,-6.484l-4.061,1.244Z" style="fill:#005cb9;fill-rule:nonzero;stroke:#005cb9;stroke-width:0.88px;"/></g><g id="Right_Gem"><path d="M153.097,58.765l-9.758,8.056l5.174,11.199l9.496,-7.27l-4.912,-11.985Z" style="fill:#fff;fill-rule:nonzero;stroke:#005cb9;stroke-width:0.44px;"/><path d="M152.377,61.647l-6.812,5.632l3.603,7.859l6.615,-5.108l-3.406,-8.383Z" style="fill:none;stroke:#005cb9;stroke-width:0.62px;"/><path d="M151.591,62.825l-5.305,4.127l4.453,1.31l0.852,-5.437Z" style="fill:#005cb9;fill-rule:nonzero;stroke:#005cb9;stroke-width:0.88px;"/><path d="M149.757,74.287l1.375,-5.305l4.127,1.375l-5.502,3.93Z" style="fill:#005cb9;fill-rule:nonzero;stroke:#005cb9;stroke-width:0.88px;"/></g><ellipse id="Cap_Exterior_Shadow" cx="124.804" cy="98.258" rx="32.813" ry="8.383" style="fill:#fff;stroke:#005cb9;stroke-width:0.65px;"/><path id="Cap_Interior_Shadow" d="M124.804,104.546c16.046,0 29.079,-2.424 29.079,-5.371c0,-2.947 -13.033,-6.026 -29.079,-6.026c-16.047,0 -29.08,3.013 -29.08,6.026c-0.066,2.947 12.968,5.371 29.08,5.371Z" style="fill:#005cb9;fill-rule:nonzero;stroke:#005cb9;stroke-width:0.65px;"/></g><g id="Precious_Stones"><g id="Left_Stones"><g id="Left_Stone_Right"><circle cx="115.569" cy="85.618" r="3.144" style="fill:#fff;stroke:#005cb9;stroke-width:0.88px;"/><path d="M113.866,87.058c0.393,0.393 0.982,0.655 1.572,0.655c1.244,0 2.227,-0.982 2.227,-2.226c0,-1.245 -0.786,0.327 -1.9,0.786c-1.179,0.458 -2.358,0.393 -1.899,0.785Z" style="fill:#005cb9;fill-rule:nonzero;"/></g><g id="Left_Stone_Middle"><circle cx="106.53" cy="87.058" r="3.013" style="fill:#fff;stroke:#005cb9;stroke-width:0.88px;"/><path d="M104.959,88.499c0.393,0.393 0.917,0.655 1.506,0.655c1.179,0 2.161,-0.982 2.161,-2.161c0,-1.179 -0.72,0.327 -1.834,0.786c-1.113,0.393 -2.226,0.327 -1.833,0.72Z" style="fill:#005cb9;fill-rule:nonzero;"/></g><g id="Left_Stone_Left"><circle cx="97.427" cy="89.547" r="2.882" style="fill:#fff;stroke:#005cb9;stroke-width:0.88px;"/><path d="M95.986,90.857c0.393,0.393 0.917,0.59 1.441,0.59c1.113,0 2.096,-0.917 2.096,-2.096c0,-1.114 -0.721,0.327 -1.769,0.72c-1.113,0.524 -2.161,0.393 -1.768,0.786Z" style="fill:#005cb9;fill-rule:nonzero;"/></g></g><g id="Right_Stones"><g id="Right_Stone_Right"><circle cx="154.473" cy="90.202" r="2.882" style="fill:#fff;stroke:#005cb9;stroke-width:0.88px;"/><path d="M152.966,91.512c0.393,0.393 0.917,0.59 1.441,0.59c1.114,0 2.096,-0.917 2.096,-2.096c0,-1.114 -0.72,0.327 -1.768,0.72c-1.114,0.459 -2.162,0.393 -1.769,0.786Z" style="fill:#005cb9;fill-rule:nonzero;"/></g><g id="Right_Stone_Middle"><circle cx="145.041" cy="87.582" r="3.013" style="fill:#fff;stroke:#005cb9;stroke-width:0.88px;"/><path d="M143.339,89.023c0.392,0.393 0.916,0.655 1.506,0.655c1.179,0 2.161,-0.982 2.161,-2.161c0,-1.179 -0.72,0.327 -1.834,0.786c-1.048,0.458 -2.161,0.327 -1.833,0.72Z" style="fill:#005cb9;fill-rule:nonzero;"/></g><g id="Right_Stone_Left"><circle cx="135.217" cy="85.749" r="3.144" style="fill:#fff;stroke:#005cb9;stroke-width:0.88px;"/><path d="M133.514,87.189c0.393,0.393 0.983,0.655 1.572,0.655c1.245,0 2.227,-0.982 2.227,-2.226c0,-1.245 -0.786,0.327 -1.899,0.786c-1.114,0.458 -2.293,0.327 -1.9,0.785Z" style="fill:#005cb9;fill-rule:nonzero;"/></g></g><g id="Center_Stones"><g id="Center_Stone_Bottom"><circle cx="125.065" cy="83.653" r="3.799" style="fill:#fff;stroke:#005cb9;stroke-width:0.88px;"/><path d="M122.904,85.356c0.459,0.458 1.179,0.786 1.9,0.786c1.506,0 2.685,-1.179 2.685,-2.686c0,-1.506 -0.917,0.393 -2.293,0.983c-1.375,0.524 -2.75,0.393 -2.292,0.917Z" style="fill:#005cb9;fill-rule:nonzero;"/></g><g id="Center_Stone_Middle_Bottom"><circle cx="125.065" cy="72.715" r="3.799" style="fill:#fff;stroke:#005cb9;stroke-width:0.88px;"/><path d="M122.97,74.418c0.458,0.458 1.179,0.786 1.899,0.786c1.506,0 2.685,-1.179 2.685,-2.685c0,-1.507 -0.917,0.393 -2.292,0.982c-1.375,0.524 -2.751,0.459 -2.292,0.917Z" style="fill:#005cb9;fill-rule:nonzero;"/></g><g id="Center_Stone_Middle"><circle cx="125.065" cy="59.944" r="3.799" style="fill:#fff;stroke:#005cb9;stroke-width:0.88px;"/><path d="M122.97,61.647c0.458,0.458 1.179,0.785 1.899,0.785c1.506,0 2.685,-1.178 2.685,-2.685c0,-1.506 -0.917,0.393 -2.292,0.983c-1.375,0.589 -2.751,0.458 -2.292,0.917Z" style="fill:#005cb9;fill-rule:nonzero;"/></g><g id="Center_Stone_Middle_Top"><circle cx="125.065" cy="48.089" r="3.799" style="fill:#fff;stroke:#005cb9;stroke-width:0.88px;"/><path d="M123.035,49.988c0.459,0.459 1.179,0.786 1.9,0.786c1.506,0 2.685,-1.178 2.685,-2.685c0,-1.506 -0.917,0.393 -2.293,0.983c-1.375,0.524 -2.75,0.458 -2.292,0.916Z" style="fill:#005cb9;fill-rule:nonzero;"/></g><g id="Center_Stone_Top"><circle cx="125.065" cy="36.038" r="3.799" style="fill:#fff;stroke:#005cb9;stroke-width:0.88px;"/><path d="M123.166,37.806c0.459,0.459 1.179,0.786 1.899,0.786c1.507,0 2.686,-1.179 2.686,-2.685c0,-1.506 -0.917,0.393 -2.293,0.983c-1.375,0.523 -2.75,0.458 -2.292,0.916Z" style="fill:#005cb9;fill-rule:nonzero;"/></g></g></g><g id="Right_Lappet"><path id="Right_Lappet_Outline" d="M146.482,95.311c0,0 -0.131,3.799 6.026,8.711c6.484,2.947 11.134,0.524 11.789,-4.52c0.393,-3.143 1.899,-9.431 5.37,-12.902c2.096,-2.096 11.855,-5.371 14.802,-5.043c4.061,0.458 12.903,5.174 17.356,16.57c3.865,9.89 -4.126,34.843 -4.126,34.843c0,0 -14.802,-1.244 -16.374,-4.715c-1.571,-3.472 2.555,-6.615 5.044,-15.457c2.554,-8.842 1.702,-13.885 0,-16.701c-3.734,-6.091 -5.698,-6.222 -6.288,-6.026c-3.013,0.917 -2.947,8.253 -3.93,11.2c-1.964,5.763 -4.715,7.008 -7.401,7.335c-6.091,0.786 -17.29,1.179 -22.661,-0.065c-2.816,-0.655 -4.846,-2.031 -8.318,-6.812c-3.471,-4.715 -3.143,-8.121 -3.143,-8.121c0,0 4.191,0.655 5.829,0.851c1.375,0.197 6.025,0.852 6.025,0.852Z" style="fill:#fff;fill-rule:nonzero;stroke:#005cb9;stroke-width:0.65px;"/><g id="Right_Lappet_Shadow"><path d="M175.562,86.404c-3.34,-0.393 -5.764,-0.066 -6.746,0.851c-4.257,4.192 -3.602,15.195 -7.663,17.291c-4.847,2.488 -10.348,-1.965 -10.348,-1.965c0,0 5.96,7.532 13.885,6.418c13.688,-0.262 10.675,-12.837 14.474,-18.404c1.114,-1.637 4.912,2.162 4.912,2.162c0,0 -3.536,-5.764 -8.514,-6.353Z" style="fill:#005cb9;fill-rule:nonzero;"/><path d="M175.562,86.404c-3.34,-0.393 -5.764,-0.066 -6.746,0.851c-4.257,4.192 -3.602,15.195 -7.663,17.291c-4.847,2.488 -10.348,-1.965 -10.348,-1.965c0,0 5.96,7.532 13.885,6.418c13.688,-0.262 10.675,-12.837 14.474,-18.404c1.114,-1.637 4.912,2.162 4.912,2.162c0,0 -3.536,-5.764 -8.514,-6.353Z" style="fill:none;stroke:#005cb9;stroke-width:0.49px;"/></g><g id="Right_Lappet_Fringes"><path id="Right_Lappet_Fringe_-_Outline" d="M197.503,132.774c0,0 2.75,3.864 2.488,6.484c-0.262,2.62 -1.899,5.436 -2.161,7.794c-0.262,2.357 2.096,2.554 1.441,3.798c-2.096,1.9 -3.995,-0.524 -3.995,-3.995c0,-1.441 0.589,-2.882 0.851,-4.257c0.262,-1.375 0.524,-3.995 0.328,-3.209c-0.197,0.655 -0.655,1.703 -0.983,3.602c-0.196,1.113 -0.72,2.292 -0.786,3.537c-0.065,1.637 0.459,3.34 1.048,4.257c0.393,0.655 -0.589,0.917 -1.572,0.262c-0.786,-0.524 -1.506,-2.031 -1.506,-2.031c0,0 -0.327,1.245 -1.048,1.245c-0.72,0 -1.441,-1.703 -1.441,-1.703c0,0 -0.655,1.179 -1.31,1.179c-0.72,0 -1.048,-4.912 -1.048,-4.912c-0.065,-0.524 -0.065,4.322 -0.524,4.388c-1.178,0.196 -1.506,-1.637 -1.506,-1.637c0,0 -0.393,1.113 -1.572,0.851c-1.179,-0.262 -1.244,-2.03 -1.244,-2.03c0,0 -0.393,1.179 -1.834,1.179c-1.899,0 -2.227,-1.507 -2.227,-1.507c0.066,-0.131 2.882,0 1.965,-3.602c-1.113,-4.454 -2.227,-4.061 -2.03,-10.283c0.196,-5.698 2.095,-5.698 2.095,-5.698c0,0.328 0.066,2.686 2.227,3.341c3.537,1.047 14.344,2.947 14.344,2.947Z" style="fill:#fff;fill-rule:nonzero;stroke:#005cb9;stroke-width:0.65px;"/><g id="Right_Lappet_Fringe_-_Solid"><path d="M181.915,131.529c0,0 -1.048,3.275 -0.852,5.371c0.066,0.851 0.852,2.096 1.31,3.34c0.721,1.965 0.852,4.257 0.852,4.257c0,0 -0.262,-8.055 -0.459,-9.431c-0.262,-1.375 -0.851,-3.537 -0.851,-3.537Z" style="fill:#005cb9;fill-rule:nonzero;"/><path d="M184.273,132.512c-0.066,0.065 1.441,3.537 1.506,5.698c0.131,2.161 -0.327,6.025 -0.327,6.025c0,0 -0.131,-4.126 -0.852,-6.156c-0.655,-1.965 -0.327,-5.567 -0.327,-5.567Z" style="fill:#005cb9;fill-rule:nonzero;"/><path d="M187.351,133.494c0,0.066 0.917,2.031 0.917,3.537c0,1.506 -0.459,2.816 -0.459,2.816c0,0 -0.065,-2.816 -0.131,-3.798c0,-0.59 -0.327,-2.555 -0.327,-2.555Z" style="fill:#005cb9;fill-rule:nonzero;"/><path d="M190.429,134.28c0,0 1.114,2.62 1.114,3.93c0,1.31 -0.59,2.62 -0.917,4.257c-0.328,1.506 -0.328,4.323 -0.328,4.323c0,0 -0.458,-2.555 -0.458,-4.323c0,-1.768 0.982,-2.03 0.982,-4.257c0,-2.227 -0.393,-3.93 -0.393,-3.93Z" style="fill:#005cb9;fill-rule:nonzero;"/><path d="M193.835,137.293c0,0 0.196,2.62 0.065,3.406c-0.131,0.851 -0.262,1.048 -0.524,2.161c-0.327,1.375 -0.851,3.995 -0.851,3.995c0,0 0.066,-3.144 0.197,-3.995c0.131,-0.851 0.458,-1.441 0.589,-2.227c0.131,-0.851 0.524,-3.34 0.524,-3.34Z" style="fill:#005cb9;fill-rule:nonzero;"/></g></g></g><g id="Left_Lappet"><g id="Left_Lappet_Outline"><path d="M110.984,93.935c-1.375,0.197 -7.27,1.179 -7.27,1.179c0,0 -0.393,3.21 -6.549,8.122c-6.484,4.388 -10.872,1.244 -11.527,-3.799c-0.393,-3.144 -1.9,-9.431 -5.371,-12.902c-2.096,-2.096 -4.912,-3.341 -6.68,-3.799c-4.389,-1.179 -5.174,-1.507 -8.187,-1.245c-4.061,0.459 -12.903,5.175 -17.356,16.571c-3.864,9.889 4.126,34.843 4.126,34.843c0,0 14.802,-1.245 16.374,-4.716c1.571,-3.471 -2.555,-6.615 -5.044,-15.457c-2.554,-8.841 -1.702,-13.884 0,-16.701c3.734,-6.091 5.698,-6.222 6.288,-6.025c3.013,0.917 3.668,7.466 5.502,10.872c2.816,5.174 3.602,7.532 5.698,8.383c3.34,1.31 15.391,0.917 20.368,0c3.21,-0.589 7.205,-2.816 10.676,-7.532c3.471,-4.715 3.537,-8.187 3.537,-8.187c0,0 -2.948,0.197 -4.585,0.393Z" style="fill:#fff;fill-rule:nonzero;"/><path d="M110.984,93.935c-1.375,0.197 -7.27,1.179 -7.27,1.179c0,0 -0.393,3.21 -6.549,8.122c-6.484,4.388 -10.872,1.244 -11.527,-3.799c-0.393,-3.144 -1.9,-9.431 -5.371,-12.902c-2.096,-2.096 -4.912,-3.341 -6.68,-3.799c-4.389,-1.179 -5.174,-1.507 -8.187,-1.245c-4.061,0.459 -12.903,5.175 -17.356,16.571c-3.864,9.889 4.126,34.843 4.126,34.843c0,0 14.802,-1.245 16.374,-4.716c1.571,-3.471 -2.555,-6.615 -5.044,-15.457c-2.554,-8.841 -1.702,-13.884 0,-16.701c3.734,-6.091 5.698,-6.222 6.288,-6.025c3.013,0.917 3.668,7.466 5.502,10.872c2.816,5.174 3.602,7.532 5.698,8.383c3.34,1.31 15.391,0.917 20.368,0c3.21,-0.589 7.205,-2.816 10.676,-7.532c3.471,-4.715 3.537,-8.187 3.537,-8.187c0,0 -2.948,0.197 -4.585,0.393Z" style="fill:none;stroke:#005cb9;stroke-width:0.65px;"/></g><g id="Left_Lappet_Shadow"><g><path d="M97.885,102.777c0.59,-0.458 0.917,-0.786 0.917,-0.786c0,0 -0.327,0.262 -0.917,0.786Z" style="fill:#005cb9;fill-rule:nonzero;"/><path d="M88.781,104.677c-4.06,-2.096 -3.471,-13.099 -7.662,-17.291c-0.983,-0.917 -4.258,-2.227 -6.877,-1.31c-2.686,0.917 -9.301,4.912 -10.611,10.348c0,0 4.323,-7.466 6.353,-6.418c4.651,2.423 5.044,18.928 13.689,19.255c4.715,1.114 11.789,-4.388 14.278,-6.549c-1.769,1.441 -5.502,3.864 -9.17,1.965Z" style="fill:#005cb9;fill-rule:nonzero;"/></g><g><path d="M97.885,102.777c0.59,-0.458 0.917,-0.786 0.917,-0.786c0,0 -0.327,0.262 -0.917,0.786Z" style="fill:none;stroke:#005cb9;stroke-width:0.49px;"/><path d="M88.781,104.677c-4.06,-2.096 -3.471,-13.099 -7.662,-17.291c-0.983,-0.917 -4.258,-2.227 -6.877,-1.31c-2.686,0.917 -9.301,4.912 -10.611,10.348c0,0 4.323,-7.466 6.353,-6.418c4.651,2.423 5.044,18.928 13.689,19.255c4.715,1.114 11.789,-4.388 14.278,-6.549c-1.769,1.441 -5.502,3.864 -9.17,1.965Z" style="fill:none;stroke:#005cb9;stroke-width:0.49px;"/></g></g><g id="Left_Lappet_Fringes"><path id="Left_Lappet_Fringe_-_Outline" d="M52.301,132.97c0,0 -2.751,3.144 -2.489,5.764c0.262,2.62 1.899,5.436 2.161,7.794c0.262,2.358 -2.095,2.554 -1.441,3.798c2.096,1.9 3.996,-0.524 3.996,-3.995c0,-1.441 -0.59,-2.882 -0.852,-4.257c-0.262,-1.375 -0.458,-4.061 -0.327,-3.209c0.131,0.786 0.655,1.703 0.982,3.602c0.197,1.113 0.721,2.292 0.786,3.537c0.066,1.637 -0.458,3.34 -1.048,4.257c-0.393,0.655 0.59,0.917 1.572,0.262c0.786,-0.524 1.506,-2.03 1.506,-2.03c0,0 0.328,1.244 1.048,1.244c0.721,0 1.441,-1.703 1.441,-1.703c0,0 0.655,1.179 1.31,1.179c0.721,0 0.983,-6.157 1.048,-4.912c0.066,1.048 0.066,4.323 0.524,4.388c1.179,0.197 1.506,-1.637 1.506,-1.637c0,0 0.393,1.113 1.572,0.851c1.179,-0.262 1.245,-2.03 1.245,-2.03c0,0 0.393,1.179 1.834,1.179c1.899,0 2.488,-1.638 2.488,-1.638c-0.196,-0.131 -2.226,-2.554 -2.095,-4.257c0.196,-2.161 1.899,-2.489 2.095,-8.449c0.197,-5.305 -1.899,-5.239 -1.899,-5.239c-1.179,1.244 -0.786,2.489 -4.781,3.405c-3.078,0.59 -12.182,2.096 -12.182,2.096Z" style="fill:#fff;fill-rule:nonzero;stroke:#005cb9;stroke-width:0.65px;"/><g id="Left_Lappet_Fringe_-_Solid"><path d="M68.347,130.678c0,0 1.048,3.275 0.851,5.371c-0.065,0.851 -0.851,2.095 -1.309,3.34c-0.721,1.965 -1.114,3.995 -1.114,3.995c0,0 0.524,-7.728 0.786,-9.169c0.197,-1.376 0.786,-3.537 0.786,-3.537Z" style="fill:#005cb9;fill-rule:nonzero;"/><path d="M65.531,132.053c-0.131,0.131 -1.441,3.472 -1.572,5.633c-0.131,2.161 0.327,6.025 0.327,6.025c0,0 0.131,-4.126 0.852,-6.156c0.72,-2.03 0.393,-5.502 0.393,-5.502Z" style="fill:#005cb9;fill-rule:nonzero;"/><path d="M62.453,132.905c0,0.131 -0.917,2.03 -0.917,3.537c0,1.506 0.458,2.816 0.458,2.816c0,0 0.066,-2.816 0.131,-3.799c0,-0.589 0.328,-2.554 0.328,-2.554Z" style="fill:#005cb9;fill-rule:nonzero;"/><path d="M59.374,133.756c0,0 -1.113,2.62 -1.113,3.93c0,1.31 0.589,2.62 0.917,4.257c0.327,1.506 0.327,4.323 0.327,4.323c0,0 0.459,-2.555 0.459,-4.323c0,-1.768 -0.983,-2.03 -0.983,-4.257c-0.065,-2.292 0.393,-3.93 0.393,-3.93Z" style="fill:#005cb9;fill-rule:nonzero;"/><path d="M55.903,136.703c0,0 -0.196,2.62 -0.065,3.406c0.131,0.852 0.262,1.048 0.524,2.162c0.327,1.375 0.851,3.995 0.851,3.995c0,0 -0.066,-3.144 -0.197,-3.995c-0.131,-0.852 -0.458,-1.441 -0.589,-2.227c-0.065,-0.852 -0.524,-3.341 -0.524,-3.341Z" style="fill:#005cb9;fill-rule:nonzero;"/></g></g></g></g><g id="Shield"><path id="Shield_Background" d="M125.065,109.261l-53.705,0l0,60.059c0,0 1.441,22.923 15.195,39.035c16.701,19.452 38.51,21.024 38.51,21.024c0,0 21.81,-1.572 38.511,-21.024c13.82,-16.112 15.195,-39.035 15.195,-39.035l0,-60.059l-53.706,0Z" style="fill:#fff;fill-rule:nonzero;"/><g id="Saltire"><rect id="Azure" x="71.36" y="109.261" width="44.274" height="44.274" style="fill:#005cb9;"/><g id="Cross_Crosslets"><path d="M83.804,145.283l0,-0.589l-0.983,0l0,0.589l-3.274,0l0,-3.274l0.655,0l0,-1.048l-0.655,0l0,-0.983l-0.983,0l0,0.983l-0.655,0l0,1.048l0.655,0l0,3.274l-3.209,0l0,-0.589l-1.048,0l0,0.589l-1.048,0l0,1.048l1.048,0l0,0.655l1.048,0l0,-0.655l3.209,0l0,3.275l-0.72,0l0,0.982l0.72,0l0,1.048l0.983,0l0,-1.048l0.589,0l0,-0.982l-0.589,0l0,-3.275l3.274,0l0,0.655l0.983,0l0,-0.655l1.048,0l0,-1.048l-1.048,0Z" style="fill:#fff;fill-rule:nonzero;"/><path d="M90.943,137.882l0,-0.589l-1.048,0l0,0.589l-3.209,0l0,-3.274l0.655,0l0,-1.048l-0.655,0l0,-0.983l-1.048,0l0,0.983l-0.655,0l0,1.048l0.655,0l0,3.274l-3.21,0l0,-0.589l-0.982,0l0,0.589l-1.113,0l0,1.048l1.113,0l0,0.655l0.982,0l0,-0.655l3.21,0l0,3.275l-0.655,0l0,0.982l0.655,0l0,1.048l1.048,0l0,-1.048l0.589,0l0,-0.982l-0.589,0l0,-3.275l3.209,0l0,0.655l1.048,0l0,-0.655l1.048,0l0,-1.048l-1.048,0Z" style="fill:#fff;fill-rule:nonzero;"/><path d="M97.754,130.481l0,-0.589l-0.982,0l0,0.589l-3.209,0l0,-3.34l0.654,0l0,-0.982l-0.654,0l0,-0.983l-1.048,0l0,0.983l-0.655,0l0,0.982l0.655,0l0,3.34l-3.21,0l0,-0.654l-0.982,0l0,0.654l-1.113,0l0,0.983l1.113,0l0,0.655l0.982,0l0,-0.655l3.21,0l0,3.275l-0.655,0l0,1.048l0.655,0l0,0.982l1.048,0l0,-0.982l0.523,0l0,-1.048l-0.523,0l0,-3.275l3.209,0l0,0.72l0.982,0l0,-0.72l1.048,0l0,-0.983l-1.048,0Z" style="fill:#fff;fill-rule:nonzero;"/><path d="M90.877,123.474l0,-0.59l-1.048,0l0,0.59l-3.209,0l0,-3.341l0.655,0l0,-0.982l-0.655,0l0,-0.983l-1.048,0l0,0.983l-0.655,0l0,0.982l0.655,0l0,3.341l-3.209,0l0,-0.655l-0.982,0l0,0.655l-1.114,0l0,0.982l1.114,0l0,0.655l0.982,0l0,-0.655l3.209,0l0,3.275l-0.655,0l0,1.048l0.655,0l0,0.982l1.048,0l0,-0.982l0.59,0l0,-1.048l-0.59,0l0,-3.275l3.209,0l0,0.72l1.048,0l0,-0.72l1.048,0l0,-0.982l-1.048,0Z" style="fill:#fff;fill-rule:nonzero;"/><path d="M83.804,116.466l0,-0.59l-0.983,0l0,0.59l-3.209,0l0,-3.275l0.655,0l0,-1.048l-0.655,0l0,-0.982l-1.048,0l0,0.982l-0.655,0l0,1.048l0.655,0l0,3.275l-3.209,0l0,-0.59l-0.982,0l0,0.59l-1.114,0l0,1.048l1.114,0l0,0.654l0.982,0l0,-0.654l3.209,0l0,3.209l-0.655,0l0,1.048l0.655,0l0,1.048l1.048,0l0,-1.048l0.524,0l0,-1.048l-0.524,0l0,-3.209l3.209,0l0,0.654l0.983,0l0,-0.654l1.048,0l0,-1.048l-1.048,0Z" style="fill:#fff;fill-rule:nonzero;"/><path d="M105.155,123.539l0,-0.589l-1.048,0l0,0.589l-3.209,0l0,-3.34l0.655,0l0,-0.983l-0.655,0l0,-0.982l-0.982,0l0,0.982l-0.655,0l0,0.983l0.655,0l0,3.34l-3.21,0l0,-0.655l-1.048,0l0,0.655l-1.048,0l0,0.982l1.048,0l0,0.655l1.048,0l0,-0.655l3.21,0l0,3.275l-0.721,0l0,1.048l0.721,0l0,0.983l0.982,0l0,-0.983l0.589,0l0,-1.048l-0.589,0l0,-3.275l3.209,0l0,0.721l1.048,0l0,-0.721l1.048,0l0,-0.982l-1.048,0Z" style="fill:#fff;fill-rule:nonzero;"/><path d="M112.556,116.531l0,-0.524l-1.048,0l0,0.524l-3.209,0l0,-3.275l0.655,0l0,-0.982l-0.655,0l0,-1.048l-1.048,0l0,1.048l-0.655,0l0,0.982l0.655,0l0,3.275l-3.209,0l0,-0.589l-0.983,0l0,0.589l-1.048,0l0,1.048l1.048,0l0,0.655l0.983,0l0,-0.655l3.209,0l0,3.275l-0.655,0l0,0.982l0.655,0l0,1.048l1.048,0l0,-1.048l0.589,0l0,-0.982l-0.589,0l0,-3.275l3.209,0l0,0.72l1.048,0l0,-0.72l1.048,0l0,-1.048l-1.048,0Z" style="fill:#fff;fill-rule:nonzero;"/><path d="M104.959,138.079l0,-0.59l-0.983,0l0,0.59l-3.275,0l0,-3.275l0.655,0l0,-1.048l-0.655,0l0,-0.982l-0.982,0l0,0.982l-0.655,0l0,1.048l0.655,0l0,3.275l-3.209,0l0,-0.655l-1.048,0l0,0.655l-1.048,0l0,1.048l1.048,0l0,0.589l1.048,0l0,-0.589l3.209,0l0,3.209l-0.72,0l0,1.048l0.72,0l0,1.048l0.982,0l0,-1.048l0.59,0l0,-1.048l-0.59,0l0,-3.209l3.275,0l0,0.655l0.983,0l0,-0.655l1.048,0l0,-1.048l-1.048,0Z" style="fill:#fff;fill-rule:nonzero;"/><path d="M112.687,144.759l0,-0.524l-1.048,0l0,0.524l-3.209,0l0,-3.274l0.655,0l0,-1.048l-0.655,0l0,-0.983l-1.048,0l0,0.983l-0.655,0l0,1.048l0.655,0l0,3.274l-3.209,0l0,-0.589l-0.983,0l0,0.589l-1.048,0l0,1.048l1.048,0l0,0.655l0.983,0l0,-0.655l3.209,0l0,3.275l-0.655,0l0,0.982l0.655,0l0,1.048l1.048,0l0,-1.048l0.589,0l0,-0.982l-0.589,0l0,-3.275l3.209,0l0,0.721l1.048,0l0,-0.721l1.048,0l0,-1.048l-1.048,0Z" style="fill:#fff;fill-rule:nonzero;"/></g></g><path id="St._George_x27_s_Cross" d="M178.837,172.464l-44.275,0l0,54.884l-9.497,2.031l-9.496,-2.031l0,-54.884l-44.275,0l0,-18.994l44.275,0l0,-44.274l18.993,0l0,44.274l44.275,0l0,18.994Z" style="fill:#c6093b;fill-rule:nonzero;"/><path id="Shield_Border_2_" d="M125.065,109.261l-53.705,0l0,60.059c0,0 1.441,22.923 15.195,39.035c16.701,19.452 38.51,21.024 38.51,21.024c0,0 21.81,-1.572 38.511,-21.024c13.82,-16.112 15.195,-39.035 15.195,-39.035l0,-60.059l-53.706,0Z" style="fill:none;stroke:#111820;stroke-width:0.65px;"/></g><g><path d="M137.706,21.105c59.666,7.008 102.434,61.041 95.426,120.773c-7.008,59.665 -61.041,102.433 -120.772,95.425c-59.732,-7.073 -102.434,-61.106 -95.426,-120.837c7.008,-59.666 61.041,-102.369 120.772,-95.361Z" style="fill:none;"/><path d="M40.97,216.607l3.34,3.275l-1.113,1.113l-8.056,-7.859l1.114,-1.114l3.34,3.275l8.776,-8.907l1.31,1.31l-8.711,8.907Z" style="fill:#005cb9;fill-rule:nonzero;"/><path d="M33.373,211.105l-1.179,-1.44l4.65,-3.799l-4.65,-5.698l-4.65,3.799l-1.179,-1.441l10.872,-8.842l1.179,1.441l-4.978,4.06l4.651,5.698l4.977,-4.06l1.179,1.441l-10.872,8.841Z" style="fill:#005cb9;fill-rule:nonzero;"/><path d="M23.811,198.989l-5.24,-8.187l1.31,-0.851l4.192,6.615l3.733,-2.424l-3.93,-6.156l1.31,-0.852l3.93,6.157l4.06,-2.62l-4.257,-6.615l1.31,-0.851l5.24,8.187l-11.658,7.597Z" style="fill:#005cb9;fill-rule:nonzero;"/><path d="M21.322,167.879c1.768,0.393 3.013,1.834 3.668,3.34c1.637,3.864 -0.524,7.467 -3.93,8.907c-3.733,1.572 -7.925,0.917 -9.628,-3.209c-1.179,-2.816 -0.851,-5.632 1.965,-7.401l0.72,1.703c-1.833,1.179 -2.03,3.144 -1.244,5.043c1.31,3.144 4.585,3.275 7.335,2.096c2.686,-1.113 4.52,-3.733 3.275,-6.615c-1.113,-2.685 -3.668,-3.471 -5.96,-2.358l1.769,4.127l-1.441,0.589l-2.424,-5.698l6.812,-2.882l0.458,1.114l-1.375,1.244Z" style="fill:#005cb9;fill-rule:nonzero;"/><path d="M8.157,167.29l-2.685,-9.301l1.507,-0.458l2.161,7.532l4.257,-1.245l-2.03,-7.008l1.506,-0.458l2.03,7.008l4.65,-1.31l-2.161,-7.597l1.507,-0.393l2.685,9.365l-13.427,3.865Z" style="fill:#005cb9;fill-rule:nonzero;"/><path d="M4.621,154.453l-0.328,-1.965l10.021,-9.104l0,-0.066l-11.2,1.834l-0.262,-1.768l13.82,-2.227l0.327,2.03l-9.89,9.039l0,0.065l11.135,-1.834l0.262,1.769l-13.885,2.227Z" style="fill:#005cb9;fill-rule:nonzero;"/><path d="M2.459,139.192l-0.458,-9.693l1.572,-0.065l0.327,7.793l4.519,-0.196l-0.327,-7.27l1.572,-0.065l0.327,7.269l4.847,-0.196l-0.328,-7.859l1.572,-0.066l0.459,9.759l-14.082,0.589Z" style="fill:#005cb9;fill-rule:nonzero;"/><path d="M2.132,125.962l0.458,-6.615c0.197,-2.619 1.703,-4.126 3.93,-3.995c1.703,0.131 3.013,0.983 3.406,2.685l0.065,0c0.459,-1.637 1.638,-1.833 3.013,-1.899c1.375,0 2.882,0.131 3.93,-0.524l-0.131,2.096c-0.59,0.458 -2.096,0.066 -3.472,0.262c-1.375,0.131 -2.554,0.327 -2.685,2.161l-0.327,4.519l5.96,0.393l-0.131,1.834l-14.016,-0.917Zm6.811,-5.305c0.131,-1.768 -0.196,-3.274 -2.292,-3.405c-1.375,-0.066 -2.423,0.589 -2.554,2.292l-0.328,4.65l4.912,0.327l0.262,-3.864Z" style="fill:#005cb9;fill-rule:nonzero;"/><path d="M4.097,107.558l0.393,-2.03l14.802,-2.816l-0.393,2.03l-4.454,0.721l-1.114,5.829l3.865,2.292l-0.328,1.899l-12.771,-7.925Zm7.859,2.882l0.852,-4.65l-6.877,1.113l0,0.066l6.025,3.471Z" style="fill:#005cb9;fill-rule:nonzero;"/><path d="M6.193,97.734l0.524,-1.768l11.92,3.536l2.095,-7.138l1.507,0.458l-2.686,8.907l-13.36,-3.995Z" style="fill:#005cb9;fill-rule:nonzero;"/><path d="M20.143,73.501c-1.965,-0.524 -3.537,0.459 -4.388,2.227c-1.441,3.013 0.393,5.501 3.013,6.746c2.881,1.375 5.894,1.31 7.4,-1.703c1.048,-2.227 0.131,-4.257 -1.899,-5.436l0.786,-1.703c3.013,1.834 3.93,4.716 2.423,7.925c-1.899,3.93 -5.698,4.454 -9.431,2.62c-3.668,-1.769 -5.632,-5.305 -3.733,-9.17c1.31,-2.619 3.733,-4.126 6.615,-3.209l-0.786,1.703Z" style="fill:#005cb9;fill-rule:nonzero;"/><path d="M22.042,61.516c2.424,-3.734 6.615,-3.668 9.825,-1.572c3.209,2.096 4.912,5.894 2.423,9.627c-2.423,3.734 -6.615,3.668 -9.824,1.572c-3.144,-2.096 -4.847,-5.894 -2.424,-9.627Zm11.003,7.204c1.9,-2.882 0.197,-5.698 -2.161,-7.204c-2.358,-1.572 -5.632,-1.965 -7.466,0.851c-1.9,2.882 -0.197,5.698 2.161,7.204c2.292,1.572 5.567,2.031 7.466,-0.851Z" style="fill:#005cb9;fill-rule:nonzero;"/><path d="M28.33,53.198l1.31,-1.507l13.426,1.834l-8.58,-7.466l1.179,-1.31l10.61,9.169l-1.31,1.572l-13.295,-1.834l8.514,7.336l-1.179,1.309l-10.675,-9.103Z" style="fill:#005cb9;fill-rule:nonzero;"/><path d="M52.235,48.286l-1.572,1.44l-13.164,-6.942l1.506,-1.375l11.2,6.222l-5.24,-11.724l1.441,-1.31l5.829,13.689Z" style="fill:#005cb9;fill-rule:nonzero;"/><path d="M48.502,32.96l7.794,-5.764l0.917,1.245l-6.288,4.65l2.62,3.602l5.895,-4.323l0.917,1.245l-5.895,4.322l2.882,3.93l6.353,-4.65l0.917,1.244l-7.86,5.764l-8.252,-11.265Z" style="fill:#005cb9;fill-rule:nonzero;"/><path d="M59.243,25.297l1.703,-0.982l12.051,6.222l0.066,0l-5.633,-9.89l1.507,-0.852l6.942,12.182l-1.768,0.983l-11.92,-6.157l-0.066,0l5.567,9.759l-1.506,0.851l-6.943,-12.116Z" style="fill:#005cb9;fill-rule:nonzero;"/><path d="M76.337,18.093l-4.322,1.833l-0.59,-1.44l10.283,-4.454l0.589,1.441l-4.322,1.834l4.912,11.461l-1.703,0.721l-4.847,-11.396Z" style="fill:#005cb9;fill-rule:nonzero;"/><path d="M84.066,13.311l1.768,-0.589l4.585,13.23l-1.769,0.589l-4.584,-13.23Z" style="fill:#005cb9;fill-rule:nonzero;"/><path d="M95.396,9.578c4.323,-1.048 7.401,1.834 8.318,5.502c0.917,3.667 -0.393,7.663 -4.781,8.776c-4.323,1.048 -7.401,-1.834 -8.318,-5.501c-0.917,-3.734 0.459,-7.663 4.781,-8.777Zm3.144,12.772c3.34,-0.852 3.995,-3.995 3.34,-6.746c-0.655,-2.751 -2.75,-5.24 -6.091,-4.454c-3.34,0.852 -3.995,3.995 -3.34,6.746c0.655,2.751 2.751,5.24 6.091,4.454Z" style="fill:#005cb9;fill-rule:nonzero;"/><path d="M105.614,7.744l1.964,-0.196l8.646,10.479l0.065,0l-1.31,-11.331l1.769,-0.196l1.572,13.95l-2.031,0.197l-8.514,-10.348l-0.066,0l1.245,11.199l-1.769,0.197l-1.571,-13.951Z" style="fill:#005cb9;fill-rule:nonzero;"/><path d="M133.121,6.238c4.454,0.327 6.484,3.995 6.222,7.794c-0.262,3.799 -2.75,7.204 -7.204,6.877c-4.454,-0.328 -6.484,-3.995 -6.222,-7.794c0.262,-3.799 2.751,-7.139 7.204,-6.877Zm-0.917,13.099c3.406,0.196 5.044,-2.62 5.24,-5.436c0.196,-2.816 -1.048,-5.829 -4.454,-6.091c-3.405,-0.197 -5.043,2.62 -5.239,5.436c-0.197,2.816 1.048,5.894 4.453,6.091Z" style="fill:#005cb9;fill-rule:nonzero;"/><path d="M143.273,7.613l9.038,1.638l-0.262,1.572l-7.204,-1.31l-0.852,4.388l6.353,1.179l-0.262,1.572l-6.353,-1.179l-1.178,6.287l-1.834,-0.327l2.554,-13.82Z" style="fill:#005cb9;fill-rule:nonzero;"/><path d="M163.642,14.228l-4.454,-1.506l0.524,-1.506l10.61,3.667l-0.524,1.507l-4.453,-1.507l-4.061,11.789l-1.768,-0.589l4.126,-11.855Z" style="fill:#005cb9;fill-rule:nonzero;"/><path d="M172.942,15.866l1.703,0.786l-2.62,5.436l6.681,3.209l2.619,-5.436l1.703,0.786l-6.025,12.64l-1.703,-0.786l2.751,-5.829l-6.681,-3.209l-2.751,5.829l-1.702,-0.786l6.025,-12.64Z" style="fill:#005cb9;fill-rule:nonzero;"/><path d="M186.762,22.808l8.186,5.174l-0.851,1.31l-6.615,-4.192l-2.358,3.799l6.157,3.864l-0.852,1.31l-6.156,-3.864l-2.62,4.126l6.68,4.192l-0.851,1.31l-8.252,-5.174l7.532,-11.855Z" style="fill:#005cb9;fill-rule:nonzero;"/><path d="M202.48,33.68l7.27,6.353l-1.048,1.179l-5.894,-5.174l-2.948,3.34l5.502,4.781l-1.048,1.179l-5.501,-4.781l-3.21,3.668l5.96,5.174l-1.048,1.179l-7.335,-6.419l9.3,-10.479Z" style="fill:#005cb9;fill-rule:nonzero;"/><path d="M212.304,42.588l4.127,4.519c1.899,2.03 1.768,4.191 -0.131,5.96c-1.9,1.768 -4.061,1.703 -5.96,-0.393l-2.882,-3.144l-4.257,3.864l-1.245,-1.375l10.348,-9.431Zm-3.733,5.894l2.489,2.685c1.375,1.572 2.751,1.638 3.995,0.524c1.245,-1.113 1.245,-2.423 -0.196,-3.995l-2.489,-2.685l-3.799,3.471Z" style="fill:#005cb9;fill-rule:nonzero;"/><path d="M221.277,52.805l1.179,1.441l-11.068,8.645l-1.179,-1.441l11.068,-8.645Z" style="fill:#005cb9;fill-rule:nonzero;"/><path d="M225.927,66.493c1.572,-1.31 1.507,-2.882 0.459,-4.453c-0.852,-1.31 -2.227,-2.293 -3.733,-1.31c-1.441,0.982 -0.393,2.947 0.393,5.108c0.786,2.162 1.375,4.454 -0.917,5.96c-2.489,1.638 -5.109,-0.131 -6.484,-2.292c-1.703,-2.62 -1.9,-5.698 0.917,-7.597l0.982,1.506c-1.965,1.31 -1.768,3.471 -0.589,5.305c0.917,1.441 2.423,2.685 4.06,1.572c1.638,-1.048 0.655,-3.144 -0.196,-5.24c-0.852,-2.161 -1.507,-4.388 0.589,-5.829c2.358,-1.572 4.847,-0.131 6.222,1.965c1.572,2.423 1.638,4.978 -0.851,6.746l-0.852,-1.441Z" style="fill:#005cb9;fill-rule:nonzero;"/><path d="M233.066,79.985c1.572,-1.244 1.769,-3.144 0.917,-4.847c-1.506,-3.012 -4.584,-3.012 -7.204,-1.702c-2.882,1.44 -4.65,3.864 -3.144,6.877c1.113,2.226 3.275,2.685 5.436,1.833l0.852,1.638c-3.275,1.244 -6.157,0.262 -7.729,-2.882c-1.965,-3.93 0,-7.27 3.602,-9.038c3.668,-1.834 7.663,-1.245 9.563,2.62c1.31,2.619 0.982,5.501 -1.507,7.204l-0.786,-1.703Z" style="fill:#005cb9;fill-rule:nonzero;"/><path d="M241.45,88.827c1.441,4.192 -1.114,7.532 -4.716,8.776c-3.602,1.245 -7.663,0.262 -9.169,-3.93c-1.441,-4.191 1.113,-7.531 4.715,-8.776c3.603,-1.244 7.663,-0.262 9.17,3.93Zm-12.444,4.322c1.113,3.21 4.388,3.603 7.073,2.686c2.685,-0.917 4.978,-3.275 3.864,-6.484c-1.113,-3.209 -4.388,-3.602 -7.073,-2.685c-2.62,0.916 -4.978,3.209 -3.864,6.483Z" style="fill:#005cb9;fill-rule:nonzero;"/><path d="M244.2,98.782l1.31,6.026c0.59,2.75 -0.589,4.519 -3.143,5.043c-2.555,0.524 -4.389,-0.59 -4.978,-3.341l-0.917,-4.191l-5.633,1.179l-0.392,-1.834l13.753,-2.882Zm-6.222,3.275l0.786,3.602c0.393,2.03 1.507,2.816 3.144,2.489c1.637,-0.328 2.292,-1.507 1.899,-3.537l-0.786,-3.602l-5.043,1.048Z" style="fill:#005cb9;fill-rule:nonzero;"/><path d="M247.082,114.697l0.197,2.031l-13.361,6.942l-0.197,-2.03l4.061,-1.965l-0.655,-5.895l-4.388,-1.113l-0.197,-1.899l14.54,3.929Zm-8.383,-0.458l0.524,4.715l6.222,-3.012l0,-0.066l-6.746,-1.637Z" style="fill:#005cb9;fill-rule:nonzero;"/><path d="M247.868,124.718l0,1.834l-12.444,0.065l0,7.401l-1.572,0l0,-9.3l14.016,0Z" style="fill:#005cb9;fill-rule:nonzero;"/><path d="M241.515,151.898c2.03,-0.065 3.275,-1.506 3.537,-3.405c0.524,-3.275 -1.965,-5.109 -4.847,-5.568c-3.144,-0.523 -6.025,0.459 -6.549,3.799c-0.393,2.423 1.113,4.061 3.34,4.65l-0.262,1.834c-3.406,-0.917 -5.174,-3.406 -4.585,-6.877c0.655,-4.322 4.192,-5.894 8.253,-5.239c3.995,0.655 6.942,3.471 6.287,7.728c-0.458,2.882 -2.358,5.043 -5.37,4.978l0.196,-1.9Z" style="fill:#005cb9;fill-rule:nonzero;"/><path d="M244.528,158.12l-0.524,1.769l-5.764,-1.703l-2.03,7.073l5.764,1.703l-0.524,1.768l-13.492,-3.929l0.524,-1.769l6.156,1.769l2.031,-7.074l-6.157,-1.768l0.524,-1.768l13.492,3.929Z" style="fill:#005cb9;fill-rule:nonzero;"/><path d="M227.303,179.734c-3.275,-1.376 -4.126,-3.996 -2.751,-7.205c1.441,-3.34 3.799,-4.585 7.27,-3.144l8.187,3.537l-0.721,1.703l-8.187,-3.537c-2.292,-0.982 -4.06,-0.196 -5.043,2.031c-0.917,2.161 -0.196,3.864 2.031,4.846l8.187,3.537l-0.721,1.703l-8.252,-3.471Z" style="fill:#005cb9;fill-rule:nonzero;"/><path d="M233.525,187.134l-3.34,5.698c-1.31,2.293 -3.406,2.948 -5.306,1.834c-1.44,-0.851 -2.292,-2.227 -1.833,-3.929l-0.066,0c-1.113,1.244 -2.292,0.917 -3.537,0.327c-1.244,-0.589 -2.554,-1.441 -3.733,-1.244l1.048,-1.769c0.786,-0.196 1.899,0.852 3.209,1.31c1.31,0.524 2.424,0.852 3.341,-0.72l2.292,-3.93l-5.174,-3.078l0.917,-1.637l12.182,7.138Zm-8.515,1.703c-0.916,1.507 -1.244,3.013 0.524,4.061c1.179,0.72 2.424,0.589 3.341,-0.917l2.357,-3.995l-4.191,-2.489l-2.031,3.34Z" style="fill:#005cb9;fill-rule:nonzero;"/><path d="M216.431,204.949c1.833,0.917 3.602,0.262 4.781,-1.31c2.03,-2.62 0.72,-5.436 -1.572,-7.204c-2.554,-1.965 -5.502,-2.489 -7.598,0.196c-1.506,1.965 -0.982,4.126 0.721,5.698l-1.113,1.507c-2.555,-2.424 -2.882,-5.436 -0.721,-8.253c2.685,-3.471 6.484,-3.144 9.759,-0.655c3.209,2.489 4.453,6.353 1.768,9.759c-1.768,2.292 -4.519,3.275 -7.139,1.768l1.114,-1.506Z" style="fill:#005cb9;fill-rule:nonzero;"/><path d="M216.038,211.891l-1.31,1.31l-4.257,-4.257l-5.24,5.24l4.257,4.257l-1.31,1.31l-9.955,-9.89l1.31,-1.31l4.519,4.519l5.24,-5.239l-4.585,-4.519l1.31,-1.31l10.021,9.889Z" style="fill:#005cb9;fill-rule:nonzero;"/></g><g><path d="M54.266,233.177c56.915,38.839 134.722,23.709 173.757,-33.73c39.101,-57.438 24.626,-135.443 -32.289,-174.281c-56.915,-38.838 -134.657,-23.775 -173.757,33.73c-39.101,57.439 -24.626,135.443 32.289,174.281Z" style="fill:none;"/><path d="M73.128,232.195c1.769,0.851 2.423,2.947 1.572,4.715c-0.851,1.769 -3.013,2.424 -4.716,1.572c-1.702,-0.851 -2.423,-3.012 -1.571,-4.715c0.851,-1.703 2.947,-2.489 4.715,-1.572Z" style="fill:#c6093b;fill-rule:nonzero;"/><path d="M88.257,234.749l2.489,0.852l0.721,14.998l-2.489,-0.852l-0.066,-3.929l-5.305,-1.769l-2.423,3.144l-2.423,-0.786l9.496,-11.658Zm-3.471,7.794l4.061,1.375l-0.131,-6.418l-0.066,0l-3.864,5.043Z" style="fill:#c6093b;fill-rule:nonzero;"/><path d="M93.956,248.372l2.619,0.655l-0.655,2.554l-2.619,-0.655l0.655,-2.554Z" style="fill:#c6093b;fill-rule:nonzero;"/><path d="M101.618,238.548l5.764,0.917c4.257,0.655 5.632,4.06 5.043,7.859c-0.589,3.799 -2.882,6.681 -7.204,5.96l-5.764,-0.917l2.161,-13.819Zm0.59,12.313l2.358,0.393c3.798,0.589 4.977,-1.441 5.37,-4.257c0.459,-2.751 -0.065,-5.109 -3.864,-5.698l-2.358,-0.393l-1.506,9.955Z" style="fill:#c6093b;fill-rule:nonzero;"/><path d="M114.259,251.712l2.751,0.197l-0.197,2.619l-2.751,-0.196l0.197,-2.62Z" style="fill:#c6093b;fill-rule:nonzero;"/><path d="M125.065,243.394c1.9,-0.065 3.668,-0.786 3.865,-2.488l1.834,-0.066l0.654,13.754l-2.423,0.131l-0.458,-9.693l-3.406,0.196l-0.066,-1.834Z" style="fill:#c6093b;fill-rule:nonzero;"/><path d="M135.021,240.578l9.3,-1.31l0.262,1.834c-2.358,3.602 -3.733,7.532 -3.406,12.51l-2.423,0.327c-0.328,-4.323 1.244,-8.842 3.602,-12.378l-7.073,0.982l-0.262,-1.965Z" style="fill:#c6093b;fill-rule:nonzero;"/><path d="M147.53,248.503c-0.393,-1.703 0.262,-3.144 1.638,-3.864l0,-0.066c-1.31,-0.196 -2.227,-0.982 -2.555,-2.292c-0.524,-2.292 0.655,-3.995 3.275,-4.65c2.685,-0.655 4.519,0.393 5.043,2.685c0.328,1.31 -0.131,2.489 -1.244,3.209l0,0.066c1.572,0 2.816,0.982 3.209,2.685c0.655,2.62 -0.982,4.716 -3.733,5.305c-2.62,0.655 -5.043,-0.458 -5.633,-3.078Zm1.179,-6.549c0.328,1.244 1.375,1.768 2.554,1.44c1.179,-0.262 1.9,-1.179 1.638,-2.488c-0.328,-1.31 -1.441,-1.834 -2.62,-1.572c-1.113,0.327 -1.899,1.31 -1.572,2.62Zm6.091,4.846c-0.327,-1.441 -1.637,-2.096 -3.078,-1.768c-1.441,0.327 -2.358,1.506 -1.965,2.947c0.393,1.572 1.703,2.227 3.144,1.899c1.375,-0.327 2.227,-1.506 1.899,-3.078Z" style="fill:#c6093b;fill-rule:nonzero;"/><path d="M157.092,235.993l6.746,-2.292l0.655,1.9l-5.174,1.768l0.459,3.537l0.065,0c0.393,-0.852 1.179,-1.507 2.096,-1.834c2.554,-0.852 4.716,0.458 5.567,2.947c0.721,2.096 0.262,5.109 -2.882,6.222c-2.488,0.851 -4.912,0.131 -5.894,-2.423l2.096,-0.721c0.589,1.376 1.768,1.834 3.143,1.376c1.834,-0.59 1.965,-2.096 1.441,-3.668c-0.458,-1.441 -1.703,-2.489 -3.405,-1.899c-0.917,0.327 -1.703,0.851 -1.703,1.899l-2.096,0.72l-1.114,-7.532Z" style="fill:#c6093b;fill-rule:nonzero;"/><path d="M175.3,232.129c1.768,-0.851 3.864,-0.196 4.716,1.572c0.851,1.769 0.131,3.864 -1.572,4.716c-1.769,0.851 -3.799,0.131 -4.716,-1.572c-0.851,-1.768 -0.131,-3.799 1.572,-4.716Z" style="fill:#c6093b;fill-rule:nonzero;"/></g></g></svg>